<?xml version="1.0" encoding="UTF-8"?><svg id="Ebene_1" xmlns="http://www.w3.org/2000/svg" viewBox="0 0 841.89 595.28"><defs><style>.cls-1,.cls-2{fill:none;}.cls-3,.cls-4{fill:#0080b7;}.cls-2{stroke:#0080b7;stroke-width:4px;}.cls-5{fill:#3793d0;}.cls-5,.cls-6,.cls-7,.cls-4{fill-rule:evenodd;}.cls-6{fill:#2199e8;}.cls-7{fill:#fff;}</style></defs><rect class="cls-1" x="90.37" y="173.46" width="273.68" height="260.87"/><rect class="cls-2" x="170.65" y="244.01" width="114.34" height="114.34" rx="4.87" ry="4.87"/><path class="cls-3" d="m154.12,302.34c1.72,0,3.11-1.39,3.11-3.11s-1.39-3.11-3.11-3.11-3.11,1.39-3.11,3.11,1.39,3.11,3.11,3.11Z"/><path class="cls-3" d="m154.12,291.84c1.72,0,3.11-1.39,3.11-3.11s-1.39-3.11-3.11-3.11-3.11,1.39-3.11,3.11,1.39,3.11,3.11,3.11Z"/><path class="cls-3" d="m154.12,281.69c1.72,0,3.11-1.39,3.11-3.11s-1.39-3.11-3.11-3.11-3.11,1.39-3.11,3.11,1.39,3.11,3.11,3.11Z"/><path class="cls-3" d="m154.12,271.64c1.72,0,3.11-1.39,3.11-3.11s-1.39-3.11-3.11-3.11-3.11,1.39-3.11,3.11,1.39,3.11,3.11,3.11Z"/><path class="cls-3" d="m154.12,260.37c1.72,0,3.11-1.39,3.11-3.11s-1.39-3.11-3.11-3.11-3.11,1.39-3.11,3.11,1.39,3.11,3.11,3.11Z"/><path class="cls-3" d="m180.39,233.75c1.72,0,3.11-1.39,3.11-3.11s-1.39-3.11-3.11-3.11-3.11,1.39-3.11,3.11,1.39,3.11,3.11,3.11Z"/><path class="cls-3" d="m191.35,233.75c1.72,0,3.11-1.39,3.11-3.11s-1.39-3.11-3.11-3.11-3.11,1.39-3.11,3.11,1.39,3.11,3.11,3.11Z"/><path class="cls-3" d="m201.76,233.75c1.72,0,3.11-1.39,3.11-3.11s-1.39-3.11-3.11-3.11-3.11,1.39-3.11,3.11,1.39,3.11,3.11,3.11Z"/><path class="cls-3" d="m212.11,233.75c1.72,0,3.11-1.39,3.11-3.11s-1.39-3.11-3.11-3.11-3.11,1.39-3.11,3.11,1.39,3.11,3.11,3.11Z"/><path class="cls-3" d="m222.16,233.75c1.72,0,3.11-1.39,3.11-3.11s-1.39-3.11-3.11-3.11-3.11,1.39-3.11,3.11,1.39,3.11,3.11,3.11Z"/><path class="cls-3" d="m222.16,231.91c-.71,0-1.27-.56-1.27-1.27v-55.54c0-.71.56-1.28,1.27-1.28s1.27.56,1.27,1.28v55.54c0,.71-.56,1.27-1.27,1.27Z"/><path class="cls-3" d="m212.11,231.91c-.71,0-1.28-.56-1.28-1.28v-47.48l-6.99-6.99c-.51-.51-.51-1.33,0-1.79.51-.46,1.33-.51,1.79,0l7.7,7.7v48.55c0,.71-.56,1.28-1.27,1.28h.05Z"/><path class="cls-3" d="m201.81,230.53c-.71,0-1.28-.56-1.28-1.27v-30.14l-17.54-17.39v-6.99c0-.71.56-1.28,1.27-1.28s1.28.56,1.28,1.28v5.87l17.54,17.39v31.21c0,.71-.56,1.28-1.28,1.28v.05Z"/><path class="cls-3" d="m190.95,230.33c-.71,0-1.28-.56-1.28-1.27v-22.8l-16.32-16.83h-26.93l-13.31-13.46c-.51-.51-.51-1.33,0-1.79.51-.51,1.33-.51,1.79,0l12.6,12.75h26.93l17.8,18.31v23.82c0,.71-.56,1.27-1.27,1.27Z"/><path class="cls-3" d="m180.39,231.66h-11.02l-6.27-7.04v-5.92l-5.51-6.12h-29.84l-18.72-18.87h-17.24c-.71,0-1.28-.56-1.28-1.28s.56-1.27,1.28-1.27h18.26l18.72,18.87h29.89l6.94,7.7v5.92l4.9,5.46h9.84c.71,0,1.28.56,1.28,1.28s-.56,1.27-1.28,1.27h.05Z"/><path class="cls-3" d="m152.64,257.82c-.31,0-.66-.1-.92-.36l-35.55-35.55c-.51-.51-.51-1.33,0-1.78.51-.46,1.33-.51,1.79,0l35.55,35.55c.51.51.51,1.33,0,1.79-.26.26-.56.36-.92.36h.05Z"/><path class="cls-3" d="m154.12,269.09h-11.48l-24.28-24.28h-17.6l-6.89-6.89v-11.42l-3.16-3.16c-.51-.51-.51-1.33,0-1.78.51-.46,1.33-.51,1.79,0l3.93,3.93v11.42l5.36,5.36h17.6l24.28,24.28h10.4c.71,0,1.27.56,1.27,1.28s-.56,1.27-1.27,1.27h.05Z"/><path class="cls-3" d="m154.12,280.05h-19.33l-19.69-20.2h-21.68l-2.35-2.35c-.51-.51-.51-1.33,0-1.79.51-.46,1.33-.51,1.79,0l1.58,1.58h21.68l19.69,20.2h18.26c.71,0,1.28.56,1.28,1.28s-.56,1.28-1.28,1.28h.05Z"/><path class="cls-3" d="m154.12,290.56h-26.93l-9.69-10.35h-25.55c-.71,0-1.28-.56-1.28-1.28s.56-1.28,1.28-1.28h26.67l9.69,10.35h25.81c.71,0,1.28.56,1.28,1.27s-.56,1.28-1.28,1.28Z"/><path class="cls-3" d="m154.28,300.25h-62.12c-.71,0-1.28-.56-1.28-1.27s.56-1.27,1.28-1.27h62.12c.71,0,1.28.56,1.28,1.27s-.56,1.27-1.28,1.27Z"/><path class="cls-3" d="m299.83,302.34c1.72,0,3.11-1.39,3.11-3.11s-1.39-3.11-3.11-3.11-3.11,1.39-3.11,3.11,1.39,3.11,3.11,3.11Z"/><path class="cls-3" d="m299.83,291.84c1.72,0,3.11-1.39,3.11-3.11s-1.39-3.11-3.11-3.11-3.11,1.39-3.11,3.11,1.39,3.11,3.11,3.11Z"/><path class="cls-3" d="m299.83,281.69c1.72,0,3.11-1.39,3.11-3.11s-1.39-3.11-3.11-3.11-3.11,1.39-3.11,3.11,1.39,3.11,3.11,3.11Z"/><path class="cls-3" d="m299.83,271.64c1.72,0,3.11-1.39,3.11-3.11s-1.39-3.11-3.11-3.11-3.11,1.39-3.11,3.11,1.39,3.11,3.11,3.11Z"/><path class="cls-3" d="m299.83,260.37c1.72,0,3.11-1.39,3.11-3.11s-1.39-3.11-3.11-3.11-3.11,1.39-3.11,3.11,1.39,3.11,3.11,3.11Z"/><path class="cls-3" d="m273.57,233.75c1.72,0,3.11-1.39,3.11-3.11s-1.39-3.11-3.11-3.11-3.11,1.39-3.11,3.11,1.39,3.11,3.11,3.11Z"/><path class="cls-3" d="m262.6,233.75c1.72,0,3.11-1.39,3.11-3.11s-1.39-3.11-3.11-3.11-3.11,1.39-3.11,3.11,1.39,3.11,3.11,3.11Z"/><path class="cls-3" d="m252.2,233.75c1.72,0,3.11-1.39,3.11-3.11s-1.39-3.11-3.11-3.11-3.11,1.39-3.11,3.11,1.39,3.11,3.11,3.11Z"/><path class="cls-3" d="m241.84,233.75c1.72,0,3.11-1.39,3.11-3.11s-1.39-3.11-3.11-3.11-3.11,1.39-3.11,3.11,1.39,3.11,3.11,3.11Z"/><path class="cls-3" d="m231.75,233.75c1.72,0,3.11-1.39,3.11-3.11s-1.39-3.11-3.11-3.11-3.11,1.39-3.11,3.11,1.39,3.11,3.11,3.11Z"/><path class="cls-3" d="m231.75,231.91c.71,0,1.27-.56,1.27-1.27v-55.54c0-.71-.56-1.28-1.27-1.28s-1.27.56-1.27,1.28v55.54c0,.71.56,1.27,1.27,1.27Z"/><path class="cls-3" d="m241.85,231.91c.71,0,1.27-.56,1.27-1.28v-47.48l6.99-6.99c.51-.51.51-1.33,0-1.79-.51-.46-1.33-.51-1.79,0l-7.7,7.7v48.55c0,.71.56,1.28,1.27,1.28h-.05Z"/><path class="cls-3" d="m252.15,230.53c.71,0,1.27-.56,1.27-1.27v-30.14l17.54-17.39v-6.99c0-.71-.56-1.28-1.27-1.28s-1.27.56-1.27,1.28v5.87l-17.54,17.39v31.21c0,.71.56,1.28,1.27,1.28v.05Z"/><path class="cls-3" d="m263.01,230.33c.71,0,1.27-.56,1.27-1.27v-22.8l16.32-16.83h26.93l13.36-13.52c.51-.51.51-1.33,0-1.79-.51-.51-1.33-.51-1.79,0l-12.6,12.75h-26.93l-17.8,18.31v23.82c0,.71.56,1.28,1.27,1.28l-.05.05Z"/><path class="cls-3" d="m273.57,231.66h11.02l6.27-7.04v-5.92l5.51-6.12h29.84l18.72-18.87h17.19c.71,0,1.28-.56,1.28-1.28s-.56-1.27-1.28-1.27h-18.26l-18.72,18.87h-29.89l-6.94,7.7v5.92l-4.9,5.46h-9.84c-.71,0-1.28.56-1.28,1.28s.56,1.27,1.28,1.27Z"/><path class="cls-3" d="m301.31,257.82c.31,0,.66-.1.92-.36l35.55-35.55c.51-.51.51-1.33,0-1.78-.51-.46-1.33-.51-1.79,0l-35.55,35.55c-.51.51-.51,1.33,0,1.79.26.26.56.36.92.36h-.05Z"/><path class="cls-3" d="m299.83,269.09h11.48l24.28-24.28h17.6l6.89-6.89v-11.42l3.16-3.16c.51-.51.51-1.33,0-1.78-.51-.46-1.33-.51-1.78,0l-3.93,3.93v11.42l-5.36,5.36h-17.6l-24.28,24.28h-10.4c-.71,0-1.27.56-1.27,1.28s.56,1.27,1.27,1.27h-.05Z"/><path class="cls-3" d="m299.83,280.05h19.33l19.69-20.2h21.68l2.35-2.35c.51-.51.51-1.33,0-1.79-.51-.46-1.33-.51-1.79,0l-1.58,1.58h-21.68l-19.69,20.2h-18.26c-.71,0-1.27.56-1.27,1.28s.56,1.28,1.27,1.28h-.05Z"/><path class="cls-3" d="m299.83,290.56h26.93l9.69-10.35h25.55c.71,0,1.27-.56,1.27-1.28s-.56-1.28-1.27-1.28h-26.67l-9.69,10.35h-25.81c-.71,0-1.27.56-1.27,1.27s.56,1.28,1.27,1.28Z"/><path class="cls-3" d="m299.68,300.25h62.12c.71,0,1.27-.56,1.27-1.27s-.56-1.27-1.27-1.27h-62.12c-.71,0-1.27.56-1.27,1.27s.56,1.27,1.27,1.27Z"/><path class="cls-3" d="m154.58,311.68c1.72,0,3.11-1.39,3.11-3.11s-1.39-3.11-3.11-3.11-3.11,1.39-3.11,3.11,1.39,3.11,3.11,3.11Z"/><path class="cls-3" d="m154.58,322.18c1.72,0,3.11-1.39,3.11-3.11s-1.39-3.11-3.11-3.11-3.11,1.39-3.11,3.11,1.39,3.11,3.11,3.11Z"/><path class="cls-3" d="m154.58,332.38c1.72,0,3.11-1.39,3.11-3.11s-1.39-3.11-3.11-3.11-3.11,1.39-3.11,3.11,1.39,3.11,3.11,3.11Z"/><path class="cls-3" d="m154.58,342.38c1.72,0,3.11-1.39,3.11-3.11s-1.39-3.11-3.11-3.11-3.11,1.39-3.11,3.11,1.39,3.11,3.11,3.11Z"/><path class="cls-3" d="m154.58,353.65c1.72,0,3.11-1.39,3.11-3.11s-1.39-3.11-3.11-3.11-3.11,1.39-3.11,3.11,1.39,3.11,3.11,3.11Z"/><path class="cls-3" d="m180.85,380.27c1.72,0,3.11-1.39,3.11-3.11s-1.39-3.11-3.11-3.11-3.11,1.39-3.11,3.11,1.39,3.11,3.11,3.11Z"/><path class="cls-3" d="m191.81,380.27c1.72,0,3.11-1.39,3.11-3.11s-1.39-3.11-3.11-3.11-3.11,1.39-3.11,3.11,1.39,3.11,3.11,3.11Z"/><path class="cls-3" d="m202.22,380.27c1.72,0,3.11-1.39,3.11-3.11s-1.39-3.11-3.11-3.11-3.11,1.39-3.11,3.11,1.39,3.11,3.11,3.11Z"/><path class="cls-3" d="m212.62,380.27c1.72,0,3.11-1.39,3.11-3.11s-1.39-3.11-3.11-3.11-3.11,1.39-3.11,3.11,1.39,3.11,3.11,3.11Z"/><path class="cls-3" d="m222.67,380.27c1.72,0,3.11-1.39,3.11-3.11s-1.39-3.11-3.11-3.11-3.11,1.39-3.11,3.11,1.39,3.11,3.11,3.11Z"/><path class="cls-3" d="m222.67,375.89c-.71,0-1.27.56-1.27,1.28v55.54c0,.71.56,1.27,1.27,1.27s1.27-.56,1.27-1.27v-55.54c0-.71-.56-1.28-1.27-1.28Z"/><path class="cls-3" d="m212.62,375.89c-.71,0-1.28.56-1.28,1.28v47.48l-6.99,6.99c-.51.51-.51,1.33,0,1.78.51.46,1.33.51,1.78,0l7.7-7.7v-48.55c0-.71-.56-1.28-1.27-1.28h.05Z"/><path class="cls-3" d="m202.27,377.32c-.71,0-1.28.56-1.28,1.27v30.14l-17.54,17.39v6.94c0,.71.56,1.27,1.28,1.27s1.28-.56,1.28-1.27v-5.87l17.54-17.39v-31.21c0-.71-.56-1.27-1.27-1.27Z"/><path class="cls-3" d="m191.46,377.47c-.71,0-1.28.56-1.28,1.27v22.8l-16.32,16.83h-26.93l-13.36,13.52c-.51.51-.51,1.33,0,1.78.51.51,1.33.51,1.78,0l12.6-12.75h26.93l17.8-18.31v-23.82c0-.71-.56-1.27-1.28-1.27l.05-.05Z"/><path class="cls-3" d="m180.85,376.14h-11.02l-6.27,7.04v5.92l-5.51,6.12h-29.84l-18.72,18.87h-17.19c-.71,0-1.28.56-1.28,1.27s.56,1.27,1.28,1.27h18.26l18.72-18.87h29.89l6.94-7.7v-5.92l4.9-5.46h9.84c.71,0,1.27-.56,1.27-1.27s-.56-1.28-1.27-1.28Z"/><path class="cls-3" d="m153.1,349.98c-.31,0-.66.1-.92.36l-35.55,35.55c-.51.51-.51,1.33,0,1.78.51.46,1.33.51,1.79,0l35.55-35.55c.51-.51.51-1.33,0-1.79-.26-.26-.56-.36-.92-.36h.05Z"/><path class="cls-3" d="m154.58,338.71h-11.48l-24.28,24.28h-17.6l-6.89,6.89v11.42l-3.16,3.16c-.51.51-.51,1.33,0,1.78.51.46,1.33.51,1.79,0l3.93-3.93v-11.43l5.36-5.35h17.6l24.28-24.28h10.4c.71,0,1.28-.56,1.28-1.28s-.56-1.27-1.28-1.27h.05Z"/><path class="cls-3" d="m154.58,327.74h-19.33l-19.69,20.2h-21.68l-2.35,2.35c-.51.51-.51,1.33,0,1.78.51.46,1.33.51,1.79,0l1.58-1.58h21.68l19.69-20.2h18.26c.71,0,1.28-.56,1.28-1.27s-.56-1.28-1.28-1.28h.05Z"/><path class="cls-3" d="m154.58,317.24h-26.93l-9.69,10.35h-25.5c-.71,0-1.28.56-1.28,1.27s.56,1.28,1.28,1.28h26.67l9.69-10.35h25.81c.71,0,1.28-.56,1.28-1.28s-.56-1.27-1.28-1.27h-.05Z"/><path class="cls-3" d="m154.79,307.55h-62.17c-.71,0-1.28.56-1.28,1.27s.56,1.27,1.28,1.27h62.12c.71,0,1.28-.56,1.28-1.27s-.56-1.27-1.28-1.27h.05Z"/><path class="cls-3" d="m300.29,311.68c1.72,0,3.11-1.39,3.11-3.11s-1.39-3.11-3.11-3.11-3.11,1.39-3.11,3.11,1.39,3.11,3.11,3.11Z"/><path class="cls-3" d="m300.29,322.18c1.72,0,3.11-1.39,3.11-3.11s-1.39-3.11-3.11-3.11-3.11,1.39-3.11,3.11,1.39,3.11,3.11,3.11Z"/><path class="cls-3" d="m300.29,332.38c1.72,0,3.11-1.39,3.11-3.11s-1.39-3.11-3.11-3.11-3.11,1.39-3.11,3.11,1.39,3.11,3.11,3.11Z"/><path class="cls-3" d="m300.29,342.38c1.72,0,3.11-1.39,3.11-3.11s-1.39-3.11-3.11-3.11-3.11,1.39-3.11,3.11,1.39,3.11,3.11,3.11Z"/><path class="cls-3" d="m300.29,353.65c1.72,0,3.11-1.39,3.11-3.11s-1.39-3.11-3.11-3.11-3.11,1.39-3.11,3.11,1.39,3.11,3.11,3.11Z"/><path class="cls-3" d="m274.08,380.27c1.72,0,3.11-1.39,3.11-3.11s-1.39-3.11-3.11-3.11-3.11,1.39-3.11,3.11,1.39,3.11,3.11,3.11Z"/><path class="cls-3" d="m263.11,380.27c1.72,0,3.11-1.39,3.11-3.11s-1.39-3.11-3.11-3.11-3.11,1.39-3.11,3.11,1.39,3.11,3.11,3.11Z"/><path class="cls-3" d="m252.66,380.27c1.72,0,3.11-1.39,3.11-3.11s-1.39-3.11-3.11-3.11-3.11,1.39-3.11,3.11,1.39,3.11,3.11,3.11Z"/><path class="cls-3" d="m242.31,380.27c1.72,0,3.11-1.39,3.11-3.11s-1.39-3.11-3.11-3.11-3.11,1.39-3.11,3.11,1.39,3.11,3.11,3.11Z"/><path class="cls-3" d="m232.26,380.27c1.72,0,3.11-1.39,3.11-3.11s-1.39-3.11-3.11-3.11-3.11,1.39-3.11,3.11,1.39,3.11,3.11,3.11Z"/><path class="cls-3" d="m232.26,375.89c.71,0,1.28.56,1.28,1.28v55.54c0,.71-.56,1.27-1.28,1.27s-1.27-.56-1.27-1.27v-55.54c0-.71.56-1.28,1.27-1.28Z"/><path class="cls-3" d="m242.3,375.89c.71,0,1.27.56,1.27,1.28v47.48l6.99,6.99c.51.51.51,1.33,0,1.78-.51.46-1.33.51-1.78,0l-7.7-7.7v-48.55c0-.71.56-1.28,1.28-1.28h-.05Z"/><path class="cls-3" d="m252.66,377.32c.71,0,1.27.56,1.27,1.27v30.14l17.54,17.39v6.94c0,.71-.56,1.27-1.27,1.27s-1.27-.56-1.27-1.27v-5.87l-17.54-17.39v-31.21c0-.71.56-1.27,1.27-1.27Z"/><path class="cls-3" d="m263.47,377.47c.71,0,1.28.56,1.28,1.27v22.8l16.32,16.83h26.93l13.36,13.52c.51.51.51,1.33,0,1.78-.51.51-1.33.51-1.79,0l-12.6-12.75h-26.93l-17.8-18.31v-23.82c0-.71.56-1.27,1.27-1.27l-.05-.05Z"/><path class="cls-3" d="m274.08,376.14h11.02l6.27,7.04v5.92l5.51,6.12h29.84l18.72,18.87h17.19c.71,0,1.28.56,1.28,1.27s-.56,1.27-1.28,1.27h-18.26l-18.72-18.87h-29.89l-6.94-7.7v-5.92l-4.9-5.46h-9.84c-.71,0-1.28-.56-1.28-1.27s.56-1.28,1.28-1.28Z"/><path class="cls-3" d="m301.82,349.98c.31,0,.66.1.92.36l35.55,35.55c.51.51.51,1.33,0,1.78-.51.46-1.33.51-1.78,0l-35.55-35.55c-.51-.51-.51-1.33,0-1.79.26-.26.56-.36.92-.36h-.05Z"/><path class="cls-3" d="m300.29,338.71h11.48l24.28,24.28h17.6l6.89,6.89v11.42l3.16,3.16c.51.51.51,1.33,0,1.78-.51.46-1.33.51-1.78,0l-3.93-3.93v-11.43l-5.36-5.35h-17.6l-24.28-24.28h-10.4c-.71,0-1.27-.56-1.27-1.28s.56-1.27,1.27-1.27h-.05Z"/><path class="cls-3" d="m300.29,327.74h19.33l19.69,20.2h21.68l2.35,2.35c.51.51.51,1.33,0,1.78-.51.46-1.33.51-1.79,0l-1.58-1.58h-21.68l-19.69-20.2h-18.26c-.71,0-1.27-.56-1.27-1.27s.56-1.28,1.27-1.28h-.05Z"/><path class="cls-3" d="m300.29,317.24h26.93l9.69,10.35h25.55c.71,0,1.27.56,1.27,1.27s-.56,1.28-1.27,1.28h-26.67l-9.69-10.35h-25.81c-.71,0-1.27-.56-1.27-1.28s.56-1.27,1.27-1.27Z"/><path class="cls-3" d="m300.14,307.55h62.12c.71,0,1.27.56,1.27,1.27s-.56,1.27-1.27,1.27h-62.12c-.71,0-1.27-.56-1.27-1.27s.56-1.27,1.27-1.27Z"/><path class="cls-4" d="m220.76,265.43c-22.97,0-41.59,18.62-41.59,41.59s18.62,41.59,41.59,41.59,41.59-18.62,41.59-41.59-18.62-41.59-41.59-41.59Z"/><path class="cls-6" d="m255.98,272.15s2.42,3,4.41,6.04c1.98,3.04,2.91,4.93,2.91,4.93,0,0-6.83,5.46-8.46,9.6-1.63,4.14-2.12,8.77-2.12,8.77,0,0,.22,3.08-5.11,4.45-5.33,1.36-8.42.18-11.06-2.6-2.65-2.78-6.26-5.33-6.26-5.33,0,0-6.08-2.12-10.22-2.91-4.14-.79-5.2-.53-5.2-.53,0,0-.18-5.55,1.06-10.22s1.94-6.96,1.94-6.96c0,0-3.35-6.43-4.23-11.46-.88-5.02-.88-10.49-.88-10.49,0,0,5.2,0,10.84,2.82,5.64,2.82,8.9,5.29,8.9,5.29,0,0,2.73-.62,4.67-.71l1.94-.09s2.65-3.52,7.23-7.14c4.59-3.62,10.67-4.32,10.67-4.32,0,0,1.15,4.85,1.41,10.31.27,5.46-2.42,10.53-2.42,10.53"/><path class="cls-7" d="m240.3,305.95c-1.42-.53-2.62-1.43-3.75-2.6-2.65-2.78-6.26-5.33-6.26-5.33,0,0-6.08-2.12-10.22-2.91-.4-.08-.77-.14-1.12-.2,1.04-4.11,3.13-7.88,6.03-10.35,4.14-3.52,9.96-2.2,13.83,4.14,1.8,2.94,3.42,7.53,4.68,11.64-1.5.55-2.71,1.25-3.01,1.8-.46.84-.43,2.65-.2,3.82"/><path class="cls-7" d="m261.01,285.1c-2.14,1.96-5.16,5.05-6.18,7.63-1.63,4.14-2.12,8.77-2.12,8.77,0,0,.06.8-.59,1.77,0-.02-.41-3.2-3.17-3.73-.56-.11-1.23-.11-1.93-.04,0,0-1.16-16.79,3.07-18.55,3.76-1.57,8.28.62,10.91,4.16Z"/><path class="cls-6" d="m252.13,303.26c-.62.93-1.9,2.01-4.52,2.68-3.07.79-5.39.73-7.32,0-.23-1.17-.27-2.98.2-3.82.66-1.19,5.68-3.13,8.46-2.6,2.76.53,3.17,3.71,3.17,3.73Z"/><path class="cls-6" d="m252.99,268.8s-2.42-2.12-4.32-3.17c-1.89-1.06-2.6-1.23-2.6-1.23,0,0,.71-2.38,3.48-4.8,2.78-2.42,4.14-2.6,4.14-2.6,0,0,.84,3.52.48,6.3-.35,2.78-1.19,5.51-1.19,5.51"/><path class="cls-6" d="m225.36,267.04s-1.59,1.54-2.69,2.8c-1.1,1.26-2.42,3.41-2.42,3.41,0,0-2.05-2.49-2.93-5.93-.88-3.44-.44-6.79-.44-6.79,0,0,3.04.75,5.55,2.6,2.51,1.85,2.93,3.9,2.93,3.9Z"/><path class="cls-5" d="m252.22,286.31c-.83,0-1.5.67-1.5,1.5s.67,1.5,1.5,1.5,1.5-.67,1.5-1.5-.67-1.5-1.5-1.5Z"/><path class="cls-5" d="m233.27,290.01c-.83,0-1.5.67-1.5,1.5s.67,1.5,1.5,1.5,1.5-.67,1.5-1.5-.67-1.5-1.5-1.5Z"/><path class="cls-6" d="m261.69,314.47c12.34,4.46,18.47,14.58,18.47,14.58,0,0-5.82-1.76-11.81-1.41-5.99.35-12.86,4.93-20.46,10.91-.37.29-.7.56-1,.84-7.14,5.77-16.23,9.23-26.13,9.23-22.97,0-41.59-18.62-41.59-41.59,0-9.18,2.97-17.66,8-24.54-1.86,8.07-.25,19.6,11.74,27.36,11.99,7.75,37.72.71,55.16,2.82,2.76.33,5.3.97,7.62,1.81"/><path class="cls-4" d="m261.69,314.47c12.34,4.46,18.47,14.58,18.47,14.58,0,0-5.82-1.76-11.81-1.41-5.99.35-12.86,4.93-20.46,10.91-.37.29-.7.56-1,.84-4.87,3.93-10.64,6.79-16.96,8.22-12.68-1.46-21.33-12.2-21.33-12.2,0,0,7.05.71,12.42-1.5,5.37-2.21,11.54-7.31,11.54-7.31,0,0-3.61.18-7.75-.71-4.14-.88-9.16-4.14-9.16-4.14,0,0,7.05-1.41,10.66-3.97,3.61-2.55,6.59-4.93,6.6-4.94,7.44-.5,14.84-.93,21.16-.17,2.76.34,5.3.97,7.62,1.81"/><path class="cls-3" d="m390.83,296.01c0-5.75,2.33-9.7,6.98-11.83,2.36-1.1,5.01-1.64,7.97-1.64,1.53,0,2.99.16,4.35.49,1.42.27,2.63.66,3.62,1.15v-17.25h7.39v57.51l-4.52.41c-3.56.38-6.35.58-8.38.58s-3.94-.19-5.75-.58c-1.75-.38-3.51-1.01-5.26-1.89-1.97-.99-3.53-2.44-4.68-4.35-1.15-1.92-1.73-4.27-1.73-7.07v-15.53Zm22.92-4.19c-2.25-1.21-4.68-1.81-7.31-1.81-2.41,0-4.38.66-5.92,1.97-1.53,1.31-2.3,3.4-2.3,6.24v13.72c0,2.14.9,3.78,2.71,4.93,1.86,1.1,4.27,1.64,7.23,1.64,1.64,0,3.51-.22,5.59-.66v-26.05Zm21.06-17.5c-1.1,0-2.08-.41-2.96-1.23-.82-.88-1.23-1.86-1.23-2.96s.41-1.97,1.23-2.79c.88-.82,1.86-1.23,2.96-1.23s2.03.41,2.79,1.23c.82.77,1.23,1.7,1.23,2.79s-.41,2.08-1.23,2.96c-.82.82-1.75,1.23-2.79,1.23Zm-3.94,8.96h7.48v41.16h-7.48v-41.16Zm35.23,52.58c3.89-.49,5.83-2.88,5.83-7.15v-6.49c-.6.93-1.62,1.7-3.04,2.3-1.37.6-3.09.9-5.18.9-4.82,0-8.57-1.31-11.26-3.94-2.68-2.63-4.03-6.46-4.03-11.5v-12.24c0-4.82,1.4-8.55,4.19-11.17,2.85-2.68,6.66-4.03,11.42-4.03,1.92,0,3.59.27,5.01.82,1.42.55,2.44,1.26,3.04,2.14l.99-2.22h6.33v46.42c0,3.62-.9,6.44-2.71,8.46-1.81,2.03-4.74,3.2-8.79,3.53l-1.81-5.83Zm5.83-37.88c0-2.63-.71-4.63-2.14-6-1.37-1.42-3.4-2.14-6.08-2.14-2.46,0-4.38.74-5.75,2.22-1.37,1.48-2.05,3.51-2.05,6.08v11.26c0,2.74.63,4.9,1.89,6.49,1.31,1.59,3.29,2.38,5.92,2.38,2.79,0,4.85-.93,6.16-2.79,1.37-1.86,2.05-4.66,2.05-8.38v-9.12Zm20.89-23.66c-1.1,0-2.08-.41-2.96-1.23-.82-.88-1.23-1.86-1.23-2.96s.41-1.97,1.23-2.79c.88-.82,1.86-1.23,2.96-1.23s2.03.41,2.79,1.23c.82.77,1.23,1.7,1.23,2.79s-.41,2.08-1.23,2.96c-.82.82-1.75,1.23-2.79,1.23Zm-3.94,8.96h7.48v41.16h-7.48v-41.16Zm29.32,42.23c-4.05-.33-6.93-1.53-8.63-3.62-1.7-2.08-2.55-4.85-2.55-8.3v-46.67h7.56v16.35h8.54l-1.97,7.07h-6.57v23.25c0,1.92.49,3.34,1.48,4.27.99.88,2.44,1.45,4.35,1.73l-2.22,5.92Zm41.47-1.07c-5.92.6-10.19.9-12.82.9-5.75,0-10.33-1.07-13.72-3.2-3.4-2.14-5.09-6-5.09-11.59v-6.82c0-5.42,1.89-9.07,5.67-10.93,1.81-.88,3.94-1.31,6.41-1.31,2.19,0,4.41.33,6.66.99,2.25.66,4.05,1.42,5.42,2.3,0-2.3-.88-4.03-2.63-5.18-1.75-1.15-4.27-1.73-7.56-1.73l.58-5.26c5.26,0,9.12.85,11.58,2.55,2.52,1.64,4.05,3.62,4.6,5.92.6,2.3.9,5.26.9,8.87v24.48Zm-7.48-22.18c-1.42-.82-3.15-1.56-5.18-2.22-2.03-.66-3.92-.99-5.67-.99-3.89,0-5.83,1.84-5.83,5.51v5.42c0,5.64,3.62,8.46,10.85,8.46,1.75,0,3.7-.16,5.83-.49v-15.69Zm16.84-35.33h7.48v57.51h-7.48v-57.51Zm20.46,12.41c0-4.55,1.15-7.89,3.45-10.02,2.3-2.14,5.15-3.2,8.54-3.2,1.04,0,2.05.08,3.04.25l-.74,4.03c-.99-.11-1.7-.16-2.14-.16-5.04,0-7.56,3.04-7.56,9.12v3.94h9.37l-1.97,4.35h-7.39v36.81h-4.6v-45.11Zm47.16,40.92c-1.31,1.64-2.98,2.9-5.01,3.78-1.97.88-3.97,1.31-6,1.31-10.3,0-15.45-5.01-15.45-15.04v-27.03h4.6v27.61c0,3.51.96,6.11,2.88,7.81,1.97,1.7,4.63,2.55,7.97,2.55s5.86-.82,7.72-2.46c1.92-1.7,2.88-4.33,2.88-7.89v-27.61h4.6v41.16h-4.52l.33-4.19Zm36.75,3.7c-3.4.88-6.68,1.31-9.86,1.31-2.96,0-5.42-.33-7.4-.99-3.23-1.1-5.59-2.77-7.07-5.01-1.42-2.3-2.14-5.5-2.14-9.61v-10.52c0-5.42,1.42-9.53,4.27-12.32,2.85-2.85,6.52-4.27,11.01-4.27,3.56,0,7.23.88,11.01,2.63l-1.31,3.37c-3.12-1.26-6.14-1.89-9.04-1.89-3.4,0-6.14.99-8.22,2.96-2.08,1.92-3.12,4.93-3.12,9.04v11.91c0,3.78,1.12,6.52,3.37,8.22,2.3,1.7,5.34,2.55,9.12,2.55,2.46,0,5.26-.36,8.38-1.07l.99,3.7Zm30.29-27.69c0-3.34-.99-5.75-2.96-7.23-1.92-1.53-4.41-2.3-7.48-2.3-1.86,0-3.75.27-5.67.82-1.92.49-3.61,1.15-5.09,1.97v34.92h-4.6v-57.51h4.6v18.57c1.37-.93,3.01-1.64,4.93-2.14,1.92-.55,3.92-.82,6-.82,2.85,0,5.45.52,7.81,1.56,2.19.99,3.89,2.46,5.09,4.44,1.26,1.97,1.89,4.46,1.89,7.48v28.43h-4.52v-28.18Zm16.77,17.75c.33,2.46,1.56,4.33,3.7,5.59,2.14,1.21,4.52,1.81,7.15,1.81,2.46,0,4.71-.55,6.74-1.64,2.03-1.15,3.04-2.99,3.04-5.5,0-1.64-.49-2.99-1.48-4.03-.93-1.1-2.11-1.97-3.53-2.63-1.42-.66-3.34-1.37-5.75-2.14-2.68-.88-4.88-1.7-6.57-2.46-1.7-.77-3.18-1.83-4.44-3.2-1.26-1.42-2-3.2-2.22-5.34l-.08-.99c0-1.81.49-3.56,1.48-5.26,1.04-1.75,2.6-3.18,4.68-4.27,2.14-1.1,4.79-1.64,7.97-1.64,1.75,0,3.29.19,4.6.58,1.37.33,2.44.68,3.21,1.07.77.38,1.23.63,1.4.74l-1.56,3.78c-.16-.11-.58-.33-1.23-.66-.6-.33-1.48-.66-2.63-.99-1.15-.33-2.41-.49-3.78-.49-2.63,0-4.88.63-6.74,1.89-1.86,1.21-2.79,2.9-2.79,5.09s.85,3.67,2.55,4.77c1.7,1.1,4.3,2.19,7.81,3.29,2.96.99,5.34,1.92,7.15,2.79,1.81.88,3.34,2.14,4.6,3.78,1.31,1.59,1.97,3.67,1.97,6.24,0,3.29-1.23,6.03-3.7,8.22-2.41,2.19-5.97,3.29-10.68,3.29-3.12,0-5.83-.52-8.13-1.56-2.25-1.1-3.97-2.52-5.18-4.27-1.15-1.75-1.78-3.7-1.89-5.83h4.35Z"/></svg>