<?xml version="1.0" encoding="UTF-8" standalone="no"?>
<!DOCTYPE svg PUBLIC "-//W3C//DTD SVG 1.1//EN" "http://www.w3.org/Graphics/SVG/1.1/DTD/svg11.dtd">
<svg width="200px" height="100%" viewBox="0 0 656 261" version="1.1" xmlns="http://www.w3.org/2000/svg" xmlns:xlink="http://www.w3.org/1999/xlink" xml:space="preserve" xmlns:serif="http://www.serif.com/" style="fill-rule:evenodd;clip-rule:evenodd;">
    <g transform="matrix(1,0,0,1,85.1682,184.884)">
        <path d="M0,-114.336L104.605,-114.336C107.292,-114.336 109.47,-112.158 109.47,-109.471L109.47,-4.866C109.47,-2.179 107.292,0 104.605,0L0,0C-2.687,0 -4.865,-2.179 -4.865,-4.866L-4.865,-109.471C-4.865,-112.158 -2.687,-114.336 0,-114.336Z" style="fill:none;fill-rule:nonzero;stroke:rgb(0,128,183);stroke-width:4px;"/>
    </g>
    <g transform="matrix(1,0,0,1,63.7774,122.658)">
        <path d="M0,6.223C1.718,6.223 3.111,4.83 3.111,3.112C3.111,1.393 1.718,0 0,0C-1.718,0 -3.111,1.393 -3.111,3.112C-3.111,4.83 -1.718,6.223 0,6.223" style="fill:rgb(0,128,183);fill-rule:nonzero;"/>
    </g>
    <g transform="matrix(1,0,0,1,63.7774,112.154)">
        <path d="M0,6.222C1.718,6.222 3.111,4.829 3.111,3.111C3.111,1.393 1.718,0 0,0C-1.718,0 -3.111,1.393 -3.111,3.111C-3.111,4.829 -1.718,6.222 0,6.222" style="fill:rgb(0,128,183);fill-rule:nonzero;"/>
    </g>
    <g transform="matrix(1,0,0,1,63.7774,102.004)">
        <path d="M0,6.222C1.718,6.222 3.111,4.829 3.111,3.111C3.111,1.393 1.718,0 0,0C-1.718,0 -3.111,1.393 -3.111,3.111C-3.111,4.829 -1.718,6.222 0,6.222" style="fill:rgb(0,128,183);fill-rule:nonzero;"/>
    </g>
    <g transform="matrix(1,0,0,1,63.7774,91.9553)">
        <path d="M0,6.222C1.718,6.222 3.111,4.829 3.111,3.111C3.111,1.393 1.718,0 0,0C-1.718,0 -3.111,1.393 -3.111,3.111C-3.111,4.829 -1.718,6.222 0,6.222" style="fill:rgb(0,128,183);fill-rule:nonzero;"/>
    </g>
    <g transform="matrix(1,0,0,1,63.7774,80.684)">
        <path d="M0,6.222C1.718,6.222 3.111,4.829 3.111,3.111C3.111,1.393 1.718,0 0,0C-1.718,0 -3.111,1.393 -3.111,3.111C-3.111,4.829 -1.718,6.222 0,6.222" style="fill:rgb(0,128,183);fill-rule:nonzero;"/>
    </g>
    <g transform="matrix(1,0,0,1,90.0433,54.0625)">
        <path d="M0,6.222C1.718,6.222 3.111,4.829 3.111,3.111C3.111,1.393 1.718,0 0,0C-1.718,0 -3.111,1.393 -3.111,3.111C-3.111,4.829 -1.718,6.222 0,6.222" style="fill:rgb(0,128,183);fill-rule:nonzero;"/>
    </g>
    <g transform="matrix(1,0,0,1,101.008,54.0625)">
        <path d="M0,6.222C1.718,6.222 3.111,4.829 3.111,3.111C3.111,1.393 1.718,0 0,0C-1.718,0 -3.111,1.393 -3.111,3.111C-3.111,4.829 -1.718,6.222 0,6.222" style="fill:rgb(0,128,183);fill-rule:nonzero;"/>
    </g>
    <g transform="matrix(1,0,0,1,111.412,54.0625)">
        <path d="M0,6.222C1.718,6.222 3.111,4.829 3.111,3.111C3.111,1.393 1.718,0 0,0C-1.718,0 -3.111,1.393 -3.111,3.111C-3.111,4.829 -1.718,6.222 0,6.222" style="fill:rgb(0,128,183);fill-rule:nonzero;"/>
    </g>
    <g transform="matrix(1,0,0,1,121.765,54.0625)">
        <path d="M0,6.222C1.717,6.222 3.11,4.829 3.11,3.111C3.11,1.393 1.717,0 0,0C-1.719,0 -3.112,1.393 -3.112,3.111C-3.112,4.829 -1.719,6.222 0,6.222" style="fill:rgb(0,128,183);fill-rule:nonzero;"/>
    </g>
    <g transform="matrix(1,0,0,1,131.813,54.0625)">
        <path d="M0,6.222C1.717,6.222 3.111,4.829 3.111,3.111C3.111,1.393 1.717,0 0,0C-1.719,0 -3.111,1.393 -3.111,3.111C-3.111,4.829 -1.719,6.222 0,6.222" style="fill:rgb(0,128,183);fill-rule:nonzero;"/>
    </g>
    <g transform="matrix(1,0,0,1,131.812,0.3558)">
        <path d="M0,58.091C-0.714,58.091 -1.275,57.53 -1.275,56.816L-1.275,1.275C-1.275,0.561 -0.714,0 0,0C0.714,0 1.275,0.561 1.275,1.275L1.275,56.816C1.275,57.53 0.714,58.091 0,58.091" style="fill:rgb(0,128,183);fill-rule:nonzero;"/>
    </g>
    <g transform="matrix(1,0,0,1,121.765,0.409)">
        <path d="M0,58.04C-0.714,58.04 -1.275,57.479 -1.275,56.765L-1.275,9.282L-8.263,2.295C-8.773,1.785 -8.773,0.969 -8.263,0.51C-7.753,0.051 -6.937,0 -6.478,0.51L1.224,8.211L1.224,56.765C1.224,57.479 0.663,58.04 -0.051,58.04L0,58.04Z" style="fill:rgb(0,128,183);fill-rule:nonzero;"/>
    </g>
    <g transform="matrix(1,0,0,1,111.465,0)">
        <path d="M0,57.071C-0.714,57.071 -1.275,56.51 -1.275,55.796L-1.275,25.654L-18.82,8.262L-18.82,1.275C-18.82,0.561 -18.259,0 -17.545,0C-16.831,0 -16.27,0.561 -16.27,1.275L-16.27,7.14L1.275,24.532L1.275,55.745C1.275,56.459 0.714,57.02 0,57.02L0,57.071Z" style="fill:rgb(0,128,183);fill-rule:nonzero;"/>
    </g>
    <g transform="matrix(1,0,0,1,100.601,0.2033)">
        <path d="M0,56.663C-0.714,56.663 -1.275,56.102 -1.275,55.388L-1.275,32.59L-17.596,15.76L-44.525,15.76L-57.836,2.295C-58.346,1.785 -58.346,0.969 -57.836,0.51C-57.326,0 -56.51,0 -56.051,0.51L-43.454,13.26L-16.525,13.26L1.275,31.57L1.275,55.388C1.275,56.102 0.714,56.663 0,56.663" style="fill:rgb(0,128,183);fill-rule:nonzero;"/>
    </g>
    <g transform="matrix(1,0,0,1,90.0418,17.699)">
        <path d="M0,40.495L-11.016,40.495L-17.29,33.457L-17.29,27.541L-22.798,21.42L-52.634,21.42L-71.351,2.55L-88.59,2.55C-89.304,2.55 -89.865,1.989 -89.865,1.275C-89.865,0.561 -89.304,0 -88.59,0L-70.331,0L-51.614,18.87L-21.727,18.87L-14.791,26.572L-14.791,32.488L-9.894,37.945L-0.051,37.945C0.663,37.945 1.224,38.506 1.224,39.22C1.224,39.934 0.663,40.495 -0.051,40.495L0,40.495Z" style="fill:rgb(0,128,183);fill-rule:nonzero;"/>
    </g>
    <g transform="matrix(1,0,0,1,62.2972,46.1561)">
        <path d="M0,38.2C-0.306,38.2 -0.663,38.098 -0.918,37.843L-36.466,2.295C-36.976,1.785 -36.976,0.969 -36.466,0.51C-35.956,0.051 -35.14,0 -34.681,0.51L0.867,36.058C1.377,36.568 1.377,37.384 0.867,37.843C0.612,38.098 0.306,38.2 -0.051,38.2L0,38.2Z" style="fill:rgb(0,128,183);fill-rule:nonzero;"/>
    </g>
    <g transform="matrix(1,0,0,1,63.7775,47.585)">
        <path d="M0,48.044L-11.475,48.044L-35.752,23.767L-53.348,23.767L-60.233,16.882L-60.233,5.458L-63.395,2.295C-63.905,1.785 -63.905,0.969 -63.395,0.51C-62.885,0.051 -62.069,0 -61.61,0.51L-57.683,4.438L-57.683,15.862L-52.328,21.217L-34.732,21.217L-10.455,45.494L-0.051,45.494C0.663,45.494 1.224,46.055 1.224,46.769C1.224,47.483 0.663,48.044 -0.051,48.044L0,48.044Z" style="fill:rgb(0,128,183);fill-rule:nonzero;"/>
    </g>
    <g transform="matrix(1,0,0,1,63.7769,81.7549)">
        <path d="M0,24.838L-19.33,24.838L-39.016,4.641L-60.692,4.641L-63.038,2.295C-63.548,1.785 -63.548,0.969 -63.038,0.51C-62.528,0.051 -61.712,0 -61.253,0.51L-59.672,2.091L-37.996,2.091L-18.31,22.288L-0.051,22.288C0.663,22.288 1.224,22.849 1.224,23.563C1.224,24.277 0.663,24.838 -0.051,24.838L0,24.838Z" style="fill:rgb(0,128,183);fill-rule:nonzero;"/>
    </g>
    <g transform="matrix(1,0,0,1,63.7774,104.197)">
        <path d="M0,12.904L-26.929,12.904L-36.619,2.551L-62.171,2.551C-62.885,2.551 -63.446,1.99 -63.446,1.276C-63.446,0.562 -62.885,0 -62.171,0L-35.497,0L-25.807,10.354L0,10.354C0.714,10.354 1.275,10.915 1.275,11.629C1.275,12.343 0.714,12.904 0,12.904" style="fill:rgb(0,128,183);fill-rule:nonzero;"/>
    </g>
    <g transform="matrix(1,0,0,1,63.9306,124.241)">
        <path d="M0,2.549L-62.12,2.549C-62.834,2.549 -63.395,1.988 -63.395,1.274C-63.395,0.56 -62.834,0 -62.12,0L0,0C0.714,0 1.275,0.56 1.275,1.274C1.275,1.988 0.714,2.549 0,2.549" style="fill:rgb(0,128,183);fill-rule:nonzero;"/>
    </g>
    <g transform="matrix(1,0,0,1,209.489,122.658)">
        <path d="M0,6.223C1.719,6.223 3.111,4.83 3.111,3.112C3.111,1.393 1.719,0 0,0C-1.717,0 -3.111,1.393 -3.111,3.112C-3.111,4.83 -1.717,6.223 0,6.223" style="fill:rgb(0,128,183);fill-rule:nonzero;"/>
    </g>
    <g transform="matrix(1,0,0,1,209.489,112.154)">
        <path d="M0,6.222C1.719,6.222 3.111,4.829 3.111,3.111C3.111,1.393 1.719,0 0,0C-1.717,0 -3.111,1.393 -3.111,3.111C-3.111,4.829 -1.717,6.222 0,6.222" style="fill:rgb(0,128,183);fill-rule:nonzero;"/>
    </g>
    <g transform="matrix(1,0,0,1,209.489,102.004)">
        <path d="M0,6.222C1.719,6.222 3.111,4.829 3.111,3.111C3.111,1.393 1.719,0 0,0C-1.717,0 -3.111,1.393 -3.111,3.111C-3.111,4.829 -1.717,6.222 0,6.222" style="fill:rgb(0,128,183);fill-rule:nonzero;"/>
    </g>
    <g transform="matrix(1,0,0,1,209.489,91.9553)">
        <path d="M0,6.222C1.719,6.222 3.111,4.829 3.111,3.111C3.111,1.393 1.719,0 0,0C-1.717,0 -3.111,1.393 -3.111,3.111C-3.111,4.829 -1.717,6.222 0,6.222" style="fill:rgb(0,128,183);fill-rule:nonzero;"/>
    </g>
    <g transform="matrix(1,0,0,1,209.489,80.684)">
        <path d="M0,6.222C1.719,6.222 3.111,4.829 3.111,3.111C3.111,1.393 1.719,0 0,0C-1.717,0 -3.111,1.393 -3.111,3.111C-3.111,4.829 -1.717,6.222 0,6.222" style="fill:rgb(0,128,183);fill-rule:nonzero;"/>
    </g>
    <g transform="matrix(1,0,0,1,183.223,54.0625)">
        <path d="M0,6.222C1.719,6.222 3.111,4.829 3.111,3.111C3.111,1.393 1.719,0 0,0C-1.717,0 -3.11,1.393 -3.11,3.111C-3.11,4.829 -1.717,6.222 0,6.222" style="fill:rgb(0,128,183);fill-rule:nonzero;"/>
    </g>
    <g transform="matrix(1,0,0,1,172.259,54.0625)">
        <path d="M0,6.222C1.717,6.222 3.111,4.829 3.111,3.111C3.111,1.393 1.717,0 0,0C-1.719,0 -3.111,1.393 -3.111,3.111C-3.111,4.829 -1.719,6.222 0,6.222" style="fill:rgb(0,128,183);fill-rule:nonzero;"/>
    </g>
    <g transform="matrix(1,0,0,1,161.854,54.0625)">
        <path d="M0,6.222C1.717,6.222 3.11,4.829 3.11,3.111C3.11,1.393 1.717,0 0,0C-1.719,0 -3.111,1.393 -3.111,3.111C-3.111,4.829 -1.719,6.222 0,6.222" style="fill:rgb(0,128,183);fill-rule:nonzero;"/>
    </g>
    <g transform="matrix(1,0,0,1,151.499,54.0625)">
        <path d="M0,6.222C1.719,6.222 3.111,4.829 3.111,3.111C3.111,1.393 1.719,0 0,0C-1.717,0 -3.11,1.393 -3.11,3.111C-3.11,4.829 -1.717,6.222 0,6.222" style="fill:rgb(0,128,183);fill-rule:nonzero;"/>
    </g>
    <g transform="matrix(1,0,0,1,141.401,54.0625)">
        <path d="M0,6.222C1.719,6.222 3.111,4.829 3.111,3.111C3.111,1.393 1.719,0 0,0C-1.719,0 -3.111,1.393 -3.111,3.111C-3.111,4.829 -1.719,6.222 0,6.222" style="fill:rgb(0,128,183);fill-rule:nonzero;"/>
    </g>
    <g transform="matrix(1,0,0,1,141.403,0.3558)">
        <path d="M0,58.091C0.714,58.091 1.275,57.53 1.275,56.816L1.275,1.275C1.275,0.561 0.714,0 0,0C-0.714,0 -1.275,0.561 -1.275,1.275L-1.275,56.816C-1.275,57.53 -0.714,58.091 0,58.091" style="fill:rgb(0,128,183);fill-rule:nonzero;"/>
    </g>
    <g transform="matrix(1,0,0,1,151.5,0.409)">
        <path d="M0,58.04C0.714,58.04 1.275,57.479 1.275,56.765L1.275,9.282L8.263,2.295C8.772,1.785 8.772,0.969 8.263,0.51C7.753,0.051 6.937,0 6.477,0.51L-1.224,8.211L-1.224,56.765C-1.224,57.479 -0.663,58.04 0.051,58.04L0,58.04Z" style="fill:rgb(0,128,183);fill-rule:nonzero;"/>
    </g>
    <g transform="matrix(1,0,0,1,161.803,0)">
        <path d="M0,57.071C0.714,57.071 1.275,56.51 1.275,55.796L1.275,25.654L18.819,8.262L18.819,1.275C18.819,0.561 18.258,0 17.544,0C16.83,0 16.27,0.561 16.27,1.275L16.27,7.14L-1.275,24.532L-1.275,55.745C-1.275,56.459 -0.714,57.02 0,57.02L0,57.071Z" style="fill:rgb(0,128,183);fill-rule:nonzero;"/>
    </g>
    <g transform="matrix(1,0,0,1,172.665,0.154)">
        <path d="M0,56.714C0.714,56.714 1.275,56.153 1.275,55.439L1.275,32.641L17.596,15.811L44.524,15.811L57.887,2.295C58.396,1.785 58.396,0.969 57.887,0.51C57.377,0 56.561,0 56.101,0.51L43.503,13.261L16.575,13.261L-1.225,31.57L-1.225,55.388C-1.225,56.102 -0.664,56.663 0.05,56.663L0,56.714Z" style="fill:rgb(0,128,183);fill-rule:nonzero;"/>
    </g>
    <g transform="matrix(1,0,0,1,183.223,17.699)">
        <path d="M0,40.495L11.016,40.495L17.289,33.457L17.289,27.541L22.798,21.42L52.633,21.42L71.351,2.55L88.538,2.55C89.252,2.55 89.814,1.989 89.814,1.275C89.814,0.561 89.252,0 88.538,0L70.28,0L51.563,18.87L21.675,18.87L14.74,26.572L14.74,32.488L9.843,37.945L0,37.945C-0.714,37.945 -1.276,38.506 -1.276,39.22C-1.276,39.934 -0.714,40.495 0,40.495" style="fill:rgb(0,128,183);fill-rule:nonzero;"/>
    </g>
    <g transform="matrix(1,0,0,1,210.969,46.1561)">
        <path d="M0,38.2C0.307,38.2 0.663,38.098 0.918,37.843L36.467,2.295C36.977,1.785 36.977,0.969 36.467,0.51C35.956,0.051 35.14,0 34.681,0.51L-0.867,36.058C-1.377,36.568 -1.377,37.384 -0.867,37.843C-0.612,38.098 -0.305,38.2 0.051,38.2L0,38.2Z" style="fill:rgb(0,128,183);fill-rule:nonzero;"/>
    </g>
    <g transform="matrix(1,0,0,1,209.489,47.585)">
        <path d="M0,48.044L11.476,48.044L35.753,23.767L53.348,23.767L60.234,16.882L60.234,5.458L63.395,2.295C63.906,1.785 63.906,0.969 63.395,0.51C62.886,0.051 62.07,0 61.611,0.51L57.684,4.438L57.684,15.862L52.328,21.217L34.732,21.217L10.456,45.494L0.051,45.494C-0.663,45.494 -1.224,46.055 -1.224,46.769C-1.224,47.483 -0.663,48.044 0.051,48.044L0,48.044Z" style="fill:rgb(0,128,183);fill-rule:nonzero;"/>
    </g>
    <g transform="matrix(1,0,0,1,209.489,81.7549)">
        <path d="M0,24.838L19.33,24.838L39.016,4.641L60.693,4.641L63.039,2.295C63.549,1.785 63.549,0.969 63.039,0.51C62.528,0.051 61.713,0 61.253,0.51L59.672,2.091L37.997,2.091L18.311,22.288L0.051,22.288C-0.663,22.288 -1.224,22.849 -1.224,23.563C-1.224,24.277 -0.663,24.838 0.051,24.838L0,24.838Z" style="fill:rgb(0,128,183);fill-rule:nonzero;"/>
    </g>
    <g transform="matrix(1,0,0,1,209.487,104.197)">
        <path d="M0,12.904L26.93,12.904L36.62,2.551L62.172,2.551C62.886,2.551 63.447,1.99 63.447,1.276C63.447,0.562 62.886,0 62.172,0L35.498,0L25.807,10.354L0,10.354C-0.714,10.354 -1.275,10.915 -1.275,11.629C-1.275,12.343 -0.714,12.904 0,12.904" style="fill:rgb(0,128,183);fill-rule:nonzero;"/>
    </g>
    <g transform="matrix(1,0,0,1,209.335,124.241)">
        <path d="M0,2.549L62.121,2.549C62.835,2.549 63.395,1.988 63.395,1.274C63.395,0.56 62.835,0 62.121,0L0,0C-0.714,0 -1.275,0.56 -1.275,1.274C-1.275,1.988 -0.714,2.549 0,2.549" style="fill:rgb(0,128,183);fill-rule:nonzero;"/>
    </g>
    <g transform="matrix(1,0,0,1,64.2359,131.992)">
        <path d="M0,6.223C1.718,6.223 3.111,4.83 3.111,3.112C3.111,1.393 1.718,0 0,0C-1.718,0 -3.111,1.393 -3.111,3.112C-3.111,4.83 -1.718,6.223 0,6.223" style="fill:rgb(0,128,183);fill-rule:nonzero;"/>
    </g>
    <g transform="matrix(1,0,0,1,64.2359,142.498)">
        <path d="M0,6.222C1.718,6.222 3.111,4.829 3.111,3.112C3.111,1.393 1.718,0 0,0C-1.718,0 -3.111,1.393 -3.111,3.112C-3.111,4.829 -1.718,6.222 0,6.222" style="fill:rgb(0,128,183);fill-rule:nonzero;"/>
    </g>
    <g transform="matrix(1,0,0,1,64.2359,152.699)">
        <path d="M0,6.223C1.718,6.223 3.111,4.829 3.111,3.112C3.111,1.393 1.718,0 0,0C-1.718,0 -3.111,1.393 -3.111,3.112C-3.111,4.829 -1.718,6.223 0,6.223" style="fill:rgb(0,128,183);fill-rule:nonzero;"/>
    </g>
    <g transform="matrix(1,0,0,1,64.2359,162.694)">
        <path d="M0,6.223C1.718,6.223 3.111,4.83 3.111,3.112C3.111,1.393 1.718,0 0,0C-1.718,0 -3.111,1.393 -3.111,3.112C-3.111,4.83 -1.718,6.223 0,6.223" style="fill:rgb(0,128,183);fill-rule:nonzero;"/>
    </g>
    <g transform="matrix(1,0,0,1,64.2359,173.966)">
        <path d="M0,6.222C1.718,6.222 3.111,4.829 3.111,3.112C3.111,1.393 1.718,0 0,0C-1.718,0 -3.111,1.393 -3.111,3.112C-3.111,4.829 -1.718,6.222 0,6.222" style="fill:rgb(0,128,183);fill-rule:nonzero;"/>
    </g>
    <g transform="matrix(1,0,0,1,90.5011,200.59)">
        <path d="M0,6.222C1.718,6.222 3.111,4.829 3.111,3.111C3.111,1.393 1.718,0 0,0C-1.718,0 -3.111,1.393 -3.111,3.111C-3.111,4.829 -1.718,6.222 0,6.222" style="fill:rgb(0,128,183);fill-rule:nonzero;"/>
    </g>
    <g transform="matrix(1,0,0,1,101.466,200.59)">
        <path d="M0,6.222C1.718,6.222 3.111,4.829 3.111,3.111C3.111,1.393 1.718,0 0,0C-1.718,0 -3.111,1.393 -3.111,3.111C-3.111,4.829 -1.718,6.222 0,6.222" style="fill:rgb(0,128,183);fill-rule:nonzero;"/>
    </g>
    <g transform="matrix(1,0,0,1,111.871,200.59)">
        <path d="M0,6.222C1.718,6.222 3.111,4.829 3.111,3.111C3.111,1.393 1.718,0 0,0C-1.718,0 -3.111,1.393 -3.111,3.111C-3.111,4.829 -1.718,6.222 0,6.222" style="fill:rgb(0,128,183);fill-rule:nonzero;"/>
    </g>
    <g transform="matrix(1,0,0,1,122.275,200.59)">
        <path d="M0,6.222C1.719,6.222 3.111,4.829 3.111,3.111C3.111,1.393 1.719,0 0,0C-1.718,0 -3.111,1.393 -3.111,3.111C-3.111,4.829 -1.718,6.222 0,6.222" style="fill:rgb(0,128,183);fill-rule:nonzero;"/>
    </g>
    <g transform="matrix(1,0,0,1,132.324,200.59)">
        <path d="M0,6.222C1.717,6.222 3.11,4.829 3.11,3.111C3.11,1.393 1.717,0 0,0C-1.719,0 -3.111,1.393 -3.111,3.111C-3.111,4.829 -1.719,6.222 0,6.222" style="fill:rgb(0,128,183);fill-rule:nonzero;"/>
    </g>
    <g transform="matrix(1,0,0,1,132.323,260.516)">
        <path d="M0,-58.091C-0.714,-58.091 -1.275,-57.529 -1.275,-56.815L-1.275,-1.275C-1.275,-0.561 -0.714,0 0,0C0.714,0 1.275,-0.561 1.275,-1.275L1.275,-56.815C1.275,-57.529 0.714,-58.091 0,-58.091" style="fill:rgb(0,128,183);fill-rule:nonzero;"/>
    </g>
    <g transform="matrix(1,0,0,1,122.276,260.465)">
        <path d="M0,-58.04C-0.714,-58.04 -1.275,-57.478 -1.275,-56.764L-1.275,-9.282L-8.263,-2.294C-8.773,-1.784 -8.773,-0.968 -8.263,-0.51C-7.753,-0.05 -6.937,0 -6.478,-0.51L1.224,-8.21L1.224,-56.764C1.224,-57.478 0.663,-58.04 -0.051,-58.04L0,-58.04Z" style="fill:rgb(0,128,183);fill-rule:nonzero;"/>
    </g>
    <g transform="matrix(1,0,0,1,111.923,260.875)">
        <path d="M0,-57.019C-0.714,-57.019 -1.275,-56.458 -1.275,-55.744L-1.275,-25.602L-18.82,-8.211L-18.82,-1.274C-18.82,-0.56 -18.259,0 -17.545,0C-16.831,0 -16.27,-0.56 -16.27,-1.274L-16.27,-7.14L1.275,-24.532L1.275,-55.744C1.275,-56.458 0.714,-57.019 0,-57.019" style="fill:rgb(0,128,183);fill-rule:nonzero;"/>
    </g>
    <g transform="matrix(1,0,0,1,101.11,260.721)">
        <path d="M0,-56.714C-0.714,-56.714 -1.275,-56.153 -1.275,-55.439L-1.275,-32.641L-17.596,-15.811L-44.525,-15.811L-57.887,-2.295C-58.397,-1.785 -58.397,-0.969 -57.887,-0.511C-57.377,0 -56.561,0 -56.102,-0.511L-43.505,-13.26L-16.576,-13.26L1.224,-31.571L1.224,-55.388C1.224,-56.102 0.663,-56.663 -0.051,-56.663L0,-56.714Z" style="fill:rgb(0,128,183);fill-rule:nonzero;"/>
    </g>
    <g transform="matrix(1,0,0,1,90.5011,243.177)">
        <path d="M0,-40.495L-11.016,-40.495L-17.29,-33.456L-17.29,-27.54L-22.798,-21.42L-52.634,-21.42L-71.352,-2.549L-88.539,-2.549C-89.253,-2.549 -89.814,-1.988 -89.814,-1.274C-89.814,-0.56 -89.253,0 -88.539,0L-70.28,0L-51.563,-18.87L-21.676,-18.87L-14.74,-26.572L-14.74,-32.488L-9.843,-37.944L0,-37.944C0.714,-37.944 1.275,-38.505 1.275,-39.219C1.275,-39.933 0.714,-40.495 0,-40.495" style="fill:rgb(0,128,183);fill-rule:nonzero;"/>
    </g>
    <g transform="matrix(1,0,0,1,62.7581,214.717)">
        <path d="M0,-38.2C-0.306,-38.2 -0.663,-38.099 -0.918,-37.844L-36.466,-2.295C-36.976,-1.785 -36.976,-0.969 -36.466,-0.511C-35.956,-0.051 -35.14,0 -34.681,-0.511L0.867,-36.058C1.377,-36.569 1.377,-37.385 0.867,-37.844C0.612,-38.099 0.306,-38.2 -0.051,-38.2L0,-38.2Z" style="fill:rgb(0,128,183);fill-rule:nonzero;"/>
    </g>
    <g transform="matrix(1,0,0,1,64.236,213.289)">
        <path d="M0,-48.044L-11.475,-48.044L-35.752,-23.767L-53.348,-23.767L-60.233,-16.881L-60.233,-5.458L-63.395,-2.295C-63.905,-1.786 -63.905,-0.969 -63.395,-0.511C-62.885,-0.051 -62.069,0 -61.61,-0.511L-57.683,-4.437L-57.683,-15.862L-52.328,-21.216L-34.732,-21.216L-10.455,-45.493L-0.051,-45.493C0.663,-45.493 1.224,-46.055 1.224,-46.769C1.224,-47.483 0.663,-48.044 -0.051,-48.044L0,-48.044Z" style="fill:rgb(0,128,183);fill-rule:nonzero;"/>
    </g>
    <g transform="matrix(1,0,0,1,64.2347,179.119)">
        <path d="M0,-24.839L-19.33,-24.839L-39.016,-4.642L-60.692,-4.642L-63.038,-2.295C-63.548,-1.786 -63.548,-0.97 -63.038,-0.511C-62.528,-0.051 -61.712,0 -61.253,-0.511L-59.672,-2.092L-37.996,-2.092L-18.31,-22.288L-0.051,-22.288C0.663,-22.288 1.224,-22.849 1.224,-23.563C1.224,-24.277 0.663,-24.839 -0.051,-24.839L0,-24.839Z" style="fill:rgb(0,128,183);fill-rule:nonzero;"/>
    </g>
    <g transform="matrix(1,0,0,1,64.2365,156.677)">
        <path d="M0.051,-12.904L-26.929,-12.904L-36.619,-2.551L-62.12,-2.551C-62.834,-2.551 -63.395,-1.99 -63.395,-1.276C-63.395,-0.562 -62.834,0 -62.12,0L-35.446,0L-25.756,-10.353L0.051,-10.353C0.765,-10.353 1.326,-10.915 1.326,-11.629C1.326,-12.343 0.765,-12.904 0.051,-12.904Z" style="fill:rgb(0,128,183);fill-rule:nonzero;"/>
    </g>
    <g transform="matrix(1,0,0,1,64.4395,136.633)">
        <path d="M0,-2.549L-62.171,-2.549C-62.885,-2.549 -63.446,-1.988 -63.446,-1.274C-63.446,-0.56 -62.885,0 -62.171,0L-0.051,0C0.663,0 1.224,-0.56 1.224,-1.274C1.224,-1.988 0.663,-2.549 -0.051,-2.549L0,-2.549Z" style="fill:rgb(0,128,183);fill-rule:nonzero;"/>
    </g>
    <g transform="matrix(1,0,0,1,209.947,131.992)">
        <path d="M0,6.223C1.717,6.223 3.11,4.83 3.11,3.112C3.11,1.393 1.717,0 0,0C-1.719,0 -3.111,1.393 -3.111,3.112C-3.111,4.83 -1.719,6.223 0,6.223" style="fill:rgb(0,128,183);fill-rule:nonzero;"/>
    </g>
    <g transform="matrix(1,0,0,1,209.947,142.498)">
        <path d="M0,6.222C1.717,6.222 3.11,4.829 3.11,3.112C3.11,1.393 1.717,0 0,0C-1.719,0 -3.111,1.393 -3.111,3.112C-3.111,4.829 -1.719,6.222 0,6.222" style="fill:rgb(0,128,183);fill-rule:nonzero;"/>
    </g>
    <g transform="matrix(1,0,0,1,209.947,152.699)">
        <path d="M0,6.223C1.717,6.223 3.11,4.829 3.11,3.112C3.11,1.393 1.717,0 0,0C-1.719,0 -3.111,1.393 -3.111,3.112C-3.111,4.829 -1.719,6.223 0,6.223" style="fill:rgb(0,128,183);fill-rule:nonzero;"/>
    </g>
    <g transform="matrix(1,0,0,1,209.947,162.694)">
        <path d="M0,6.223C1.717,6.223 3.11,4.83 3.11,3.112C3.11,1.393 1.717,0 0,0C-1.719,0 -3.111,1.393 -3.111,3.112C-3.111,4.83 -1.719,6.223 0,6.223" style="fill:rgb(0,128,183);fill-rule:nonzero;"/>
    </g>
    <g transform="matrix(1,0,0,1,209.947,173.966)">
        <path d="M0,6.222C1.717,6.222 3.11,4.829 3.11,3.112C3.11,1.393 1.717,0 0,0C-1.719,0 -3.111,1.393 -3.111,3.112C-3.111,4.829 -1.719,6.222 0,6.222" style="fill:rgb(0,128,183);fill-rule:nonzero;"/>
    </g>
    <g transform="matrix(1,0,0,1,183.734,200.59)">
        <path d="M0,6.222C1.717,6.222 3.111,4.829 3.111,3.111C3.111,1.393 1.717,0 0,0C-1.719,0 -3.111,1.393 -3.111,3.111C-3.111,4.829 -1.719,6.222 0,6.222" style="fill:rgb(0,128,183);fill-rule:nonzero;"/>
    </g>
    <g transform="matrix(1,0,0,1,172.766,200.59)">
        <path d="M0,6.222C1.719,6.222 3.111,4.829 3.111,3.111C3.111,1.393 1.719,0 0,0C-1.717,0 -3.111,1.393 -3.111,3.111C-3.111,4.829 -1.717,6.222 0,6.222" style="fill:rgb(0,128,183);fill-rule:nonzero;"/>
    </g>
    <g transform="matrix(1,0,0,1,162.312,200.59)">
        <path d="M0,6.222C1.719,6.222 3.111,4.829 3.111,3.111C3.111,1.393 1.719,0 0,0C-1.719,0 -3.111,1.393 -3.111,3.111C-3.111,4.829 -1.719,6.222 0,6.222" style="fill:rgb(0,128,183);fill-rule:nonzero;"/>
    </g>
    <g transform="matrix(1,0,0,1,151.96,200.59)">
        <path d="M0,6.222C1.719,6.222 3.111,4.829 3.111,3.111C3.111,1.393 1.719,0 0,0C-1.717,0 -3.111,1.393 -3.111,3.111C-3.111,4.829 -1.717,6.222 0,6.222" style="fill:rgb(0,128,183);fill-rule:nonzero;"/>
    </g>
    <g transform="matrix(1,0,0,1,141.911,200.59)">
        <path d="M0,6.222C1.719,6.222 3.111,4.829 3.111,3.111C3.111,1.393 1.719,0 0,0C-1.719,0 -3.111,1.393 -3.111,3.111C-3.111,4.829 -1.719,6.222 0,6.222" style="fill:rgb(0,128,183);fill-rule:nonzero;"/>
    </g>
    <g transform="matrix(1,0,0,1,141.91,260.516)">
        <path d="M0,-58.091C0.714,-58.091 1.276,-57.529 1.276,-56.815L1.276,-1.275C1.276,-0.561 0.714,0 0,0C-0.714,0 -1.275,-0.561 -1.275,-1.275L-1.275,-56.815C-1.275,-57.529 -0.714,-58.091 0,-58.091" style="fill:rgb(0,128,183);fill-rule:nonzero;"/>
    </g>
    <g transform="matrix(1,0,0,1,151.958,260.465)">
        <path d="M0,-58.04C0.714,-58.04 1.275,-57.478 1.275,-56.764L1.275,-9.282L8.261,-2.294C8.772,-1.784 8.772,-0.968 8.261,-0.51C7.752,-0.05 6.936,0 6.477,-0.51L-1.225,-8.21L-1.225,-56.764C-1.225,-57.478 -0.663,-58.04 0.051,-58.04L0,-58.04Z" style="fill:rgb(0,128,183);fill-rule:nonzero;"/>
    </g>
    <g transform="matrix(1,0,0,1,162.312,260.875)">
        <path d="M0,-57.019C0.714,-57.019 1.275,-56.458 1.275,-55.744L1.275,-25.602L18.819,-8.211L18.819,-1.274C18.819,-0.56 18.258,0 17.544,0C16.83,0 16.27,-0.56 16.27,-1.274L16.27,-7.14L-1.275,-24.532L-1.275,-55.744C-1.275,-56.458 -0.714,-57.019 0,-57.019" style="fill:rgb(0,128,183);fill-rule:nonzero;"/>
    </g>
    <g transform="matrix(1,0,0,1,173.125,260.721)">
        <path d="M0,-56.714C0.714,-56.714 1.276,-56.153 1.276,-55.439L1.276,-32.641L17.597,-15.811L44.525,-15.811L57.888,-2.295C58.397,-1.785 58.397,-0.969 57.888,-0.511C57.377,0 56.562,0 56.102,-0.511L43.505,-13.26L16.576,-13.26L-1.224,-31.571L-1.224,-55.388C-1.224,-56.102 -0.663,-56.663 0.051,-56.663L0,-56.714Z" style="fill:rgb(0,128,183);fill-rule:nonzero;"/>
    </g>
    <g transform="matrix(1,0,0,1,183.734,243.177)">
        <path d="M0,-40.495L11.016,-40.495L17.289,-33.456L17.289,-27.54L22.798,-21.42L52.633,-21.42L71.351,-2.549L88.538,-2.549C89.252,-2.549 89.814,-1.988 89.814,-1.274C89.814,-0.56 89.252,0 88.538,0L70.28,0L51.563,-18.87L21.675,-18.87L14.74,-26.572L14.74,-32.488L9.843,-37.944L0,-37.944C-0.714,-37.944 -1.276,-38.505 -1.276,-39.219C-1.276,-39.933 -0.714,-40.495 0,-40.495" style="fill:rgb(0,128,183);fill-rule:nonzero;"/>
    </g>
    <g transform="matrix(1,0,0,1,211.477,214.717)">
        <path d="M0,-38.2C0.305,-38.2 0.663,-38.099 0.917,-37.844L36.466,-2.295C36.975,-1.785 36.975,-0.969 36.466,-0.511C35.956,-0.051 35.14,0 34.681,-0.511L-0.867,-36.058C-1.377,-36.569 -1.377,-37.385 -0.867,-37.844C-0.612,-38.099 -0.307,-38.2 0.051,-38.2L0,-38.2Z" style="fill:rgb(0,128,183);fill-rule:nonzero;"/>
    </g>
    <g transform="matrix(1,0,0,1,209.947,213.289)">
        <path d="M0,-48.044L11.476,-48.044L35.753,-23.767L53.348,-23.767L60.234,-16.881L60.234,-5.458L63.395,-2.295C63.906,-1.786 63.906,-0.969 63.395,-0.511C62.886,-0.051 62.07,0 61.611,-0.511L57.684,-4.437L57.684,-15.862L52.328,-21.216L34.732,-21.216L10.456,-45.493L0.051,-45.493C-0.663,-45.493 -1.224,-46.055 -1.224,-46.769C-1.224,-47.483 -0.663,-48.044 0.051,-48.044L0,-48.044Z" style="fill:rgb(0,128,183);fill-rule:nonzero;"/>
    </g>
    <g transform="matrix(1,0,0,1,209.947,179.119)">
        <path d="M0,-24.839L19.33,-24.839L39.016,-4.642L60.693,-4.642L63.039,-2.295C63.549,-1.786 63.549,-0.97 63.039,-0.511C62.528,-0.051 61.713,0 61.253,-0.511L59.672,-2.092L37.997,-2.092L18.311,-22.288L0.051,-22.288C-0.663,-22.288 -1.224,-22.849 -1.224,-23.563C-1.224,-24.277 -0.663,-24.839 0.051,-24.839L0,-24.839Z" style="fill:rgb(0,128,183);fill-rule:nonzero;"/>
    </g>
    <g transform="matrix(1,0,0,1,209.948,156.677)">
        <path d="M0,-12.904L26.93,-12.904L36.62,-2.551L62.172,-2.551C62.886,-2.551 63.446,-1.99 63.446,-1.276C63.446,-0.562 62.886,0 62.172,0L35.498,0L25.807,-10.353L0,-10.353C-0.714,-10.353 -1.275,-10.915 -1.275,-11.629C-1.275,-12.343 -0.714,-12.904 0,-12.904" style="fill:rgb(0,128,183);fill-rule:nonzero;"/>
    </g>
    <g transform="matrix(1,0,0,1,209.794,136.633)">
        <path d="M0,-2.549L62.121,-2.549C62.835,-2.549 63.395,-1.988 63.395,-1.274C63.395,-0.56 62.835,0 62.121,0L0,0C-0.714,0 -1.275,-0.56 -1.275,-1.274C-1.275,-1.988 -0.714,-2.549 0,-2.549" style="fill:rgb(0,128,183);fill-rule:nonzero;"/>
    </g>
    <g transform="matrix(-1,0,0,1,130.416,175.152)">
        <path d="M0.001,-83.187C22.971,-83.187 41.594,-64.563 41.594,-41.594C41.594,-18.623 22.974,0 0.001,0C-22.972,0 -41.593,-18.621 -41.593,-41.594C-41.593,-64.566 -22.972,-83.187 0.001,-83.187" style="fill:rgb(0,128,183);"/>
    </g>
    <g transform="matrix(1,0,0,1,165.635,113.001)">
        <path d="M0,-14.313C0,-14.313 2.423,-11.315 4.406,-8.278C6.388,-5.237 7.313,-3.343 7.313,-3.343C7.313,-3.343 0.483,2.121 -1.147,6.262C-2.776,10.402 -3.262,15.03 -3.262,15.03C-3.262,15.03 -3.044,18.114 -8.373,19.479C-13.707,20.843 -16.79,19.655 -19.432,16.879C-22.078,14.102 -25.689,11.549 -25.689,11.549C-25.689,11.549 -31.771,9.433 -35.911,8.642C-40.053,7.849 -41.111,8.113 -41.111,8.113C-41.111,8.113 -41.287,2.562 -40.053,-2.109C-38.818,-6.779 -38.116,-9.071 -38.116,-9.071C-38.116,-9.071 -41.464,-15.505 -42.346,-20.528C-43.227,-25.551 -43.227,-31.015 -43.227,-31.015C-43.227,-31.015 -38.028,-31.015 -32.387,-28.193C-26.747,-25.374 -23.489,-22.905 -23.489,-22.905C-23.489,-22.905 -20.754,-23.523 -18.818,-23.611L-16.882,-23.699C-16.882,-23.699 -14.236,-27.223 -9.654,-30.835C-5.065,-34.45 1.016,-35.156 1.016,-35.156C1.016,-35.156 2.163,-30.309 2.427,-24.845C2.692,-19.382 0.004,-14.313 0.004,-14.313" style="fill:rgb(33,153,232);"/>
    </g>
    <g transform="matrix(1,0,0,1,149.953,107.574)">
        <path d="M0,24.913C-1.422,24.38 -2.621,23.487 -3.746,22.31C-6.392,19.533 -10.003,16.98 -10.003,16.98C-10.003,16.98 -16.085,14.864 -20.225,14.073C-20.628,13.996 -20.998,13.929 -21.344,13.872C-20.299,9.767 -18.218,5.992 -15.312,3.52C-11.171,-0.004 -5.354,1.319 -1.478,7.661C0.317,10.603 1.944,15.188 3.206,19.304C1.71,19.854 0.497,20.552 0.193,21.1C-0.268,21.935 -0.236,23.745 -0.007,24.917" style="fill:white;"/>
    </g>
    <g transform="matrix(1,0,0,1,170.668,124.071)">
        <path d="M0,-12.434C-2.141,-10.469 -5.165,-7.383 -6.177,-4.808C-7.806,-0.667 -8.293,3.96 -8.293,3.96C-8.293,3.96 -8.236,4.762 -8.885,5.728C-8.885,5.703 -9.294,2.525 -12.06,1.996C-12.624,1.887 -13.287,1.883 -13.985,1.953C-13.985,1.953 -15.146,-14.836 -10.913,-16.596C-7.153,-18.162 -2.631,-15.972 0,-12.434" style="fill:white;"/>
    </g>
    <g transform="matrix(1,0,0,1,161.783,129.006)">
        <path d="M0,0.793C-0.624,1.725 -1.905,2.807 -4.519,3.474C-7.588,4.261 -9.908,4.2 -11.834,3.477C-12.064,2.302 -12.099,0.493 -11.633,-0.339C-10.974,-1.528 -5.95,-3.468 -3.175,-2.939C-0.41,-2.413 -0.004,0.772 0,0.793" style="fill:rgb(33,153,232);"/>
    </g>
    <g transform="matrix(1,0,0,1,162.64,83.5244)">
        <path d="M0,11.813C0,11.813 -2.424,9.697 -4.318,8.639C-6.212,7.58 -6.917,7.404 -6.917,7.404C-6.917,7.404 -6.212,5.023 -3.436,2.6C-0.66,0.176 0.705,0 0.705,0C0.705,0 1.541,3.524 1.188,6.3C0.836,9.076 0,11.809 0,11.809" style="fill:rgb(33,153,232);"/>
    </g>
    <g transform="matrix(1,0,0,1,135.014,93.2844)">
        <path d="M0,0.289C0,0.289 -1.586,1.83 -2.687,3.086C-3.788,4.342 -5.111,6.501 -5.111,6.501C-5.111,6.501 -7.159,4.01 -8.041,0.575C-8.923,-2.861 -8.483,-6.212 -8.483,-6.212C-8.483,-6.212 -5.442,-5.464 -2.93,-3.612C-0.42,-1.76 0,0.289 0,0.289" style="fill:rgb(33,153,232);"/>
    </g>
    <g transform="matrix(-1,0,0,1,161.871,115.848)">
        <path d="M-0.001,-2.998C0.825,-2.998 1.499,-2.328 1.499,-1.499C1.499,-0.67 0.829,0 -0.001,0C-0.829,0 -1.5,-0.67 -1.5,-1.499C-1.5,-2.328 -0.829,-2.998 -0.001,-2.998" style="fill:rgb(55,147,208);"/>
    </g>
    <g transform="matrix(-1,0,0,1,142.927,119.548)">
        <path d="M0.001,-2.998C0.829,-2.998 1.5,-2.328 1.5,-1.499C1.5,-0.67 0.829,0 0.001,0C-0.829,0 -1.499,-0.67 -1.499,-1.499C-1.499,-2.328 -0.829,-2.998 0.001,-2.998" style="fill:rgb(55,147,208);"/>
    </g>
    <g transform="matrix(1,0,0,1,171.342,143.158)">
        <path d="M0,-2.149C12.345,2.314 18.465,12.43 18.465,12.43C18.465,12.43 12.649,10.67 6.656,11.019C0.663,11.372 -6.208,15.954 -13.803,21.928C-14.169,22.218 -14.501,22.493 -14.8,22.764C-21.944,28.536 -31.034,31.992 -40.931,31.992C-63.9,31.992 -82.525,13.371 -82.525,-9.601C-82.525,-18.78 -79.551,-27.259 -74.521,-34.141C-76.384,-26.074 -74.772,-14.54 -62.786,-6.783C-50.8,0.97 -25.069,-6.078 -7.623,-3.965C-4.864,-3.631 -2.324,-2.992 -0.004,-2.153" style="fill:rgb(33,153,232);"/>
    </g>
    <g transform="matrix(1,0,0,1,171.342,171.562)">
        <path d="M0,-30.553C12.345,-26.091 18.465,-15.975 18.465,-15.975C18.465,-15.975 12.649,-17.735 6.656,-17.386C0.663,-17.033 -6.208,-12.451 -13.803,-6.476C-14.169,-6.186 -14.501,-5.911 -14.8,-5.64C-19.668,-1.708 -25.44,1.15 -31.756,2.575C-44.434,1.118 -53.089,-9.63 -53.089,-9.63C-53.089,-9.63 -46.042,-8.924 -40.666,-11.128C-35.291,-13.333 -29.122,-18.441 -29.122,-18.441C-29.122,-18.441 -32.734,-18.264 -36.874,-19.146C-41.016,-20.028 -46.038,-23.287 -46.038,-23.287C-46.038,-23.287 -38.987,-24.698 -35.376,-27.252C-31.767,-29.801 -28.783,-32.187 -28.772,-32.194C-21.333,-32.694 -13.933,-33.128 -7.615,-32.363C-4.857,-32.027 -2.318,-31.389 0.004,-30.549" style="fill:rgb(0,128,183);"/>
    </g>
    <g transform="matrix(1,0,0,1,630.122,120.332)">
        <path d="M0,20.212C0.328,22.677 1.562,24.539 3.698,25.799C5.834,27.004 8.216,27.607 10.846,27.607C13.31,27.607 15.557,27.059 17.583,25.963C19.61,24.813 20.623,22.978 20.623,20.459C20.623,18.815 20.13,17.473 19.144,16.432C18.213,15.337 17.035,14.461 15.612,13.803C14.187,13.146 12.27,12.434 9.86,11.667C7.175,10.791 4.985,9.969 3.287,9.202C1.589,8.435 0.109,7.367 -1.151,5.998C-2.41,4.574 -3.149,2.793 -3.368,0.657L-3.451,-0.329C-3.451,-2.136 -2.958,-3.889 -1.972,-5.587C-0.93,-7.34 0.63,-8.764 2.711,-9.86C4.848,-10.955 7.505,-11.503 10.682,-11.503C12.435,-11.503 13.968,-11.311 15.282,-10.928C16.652,-10.599 17.72,-10.243 18.487,-9.86C19.253,-9.476 19.719,-9.23 19.883,-9.12L18.323,-5.341C18.159,-5.45 17.747,-5.669 17.089,-5.998C16.487,-6.327 15.612,-6.655 14.461,-6.984C13.31,-7.313 12.05,-7.477 10.682,-7.477C8.052,-7.477 5.807,-6.847 3.943,-5.587C2.081,-4.382 1.151,-2.684 1.151,-0.493C1.151,1.588 2,3.177 3.698,4.272C5.396,5.368 7.997,6.463 11.503,7.559C14.461,8.545 16.844,9.476 18.651,10.352C20.459,11.229 21.993,12.489 23.253,14.132C24.568,15.72 25.224,17.802 25.224,20.376C25.224,23.663 23.992,26.402 21.527,28.593C19.117,30.784 15.557,31.879 10.846,31.879C7.724,31.879 5.013,31.359 2.711,30.318C0.466,29.223 -1.26,27.799 -2.464,26.046C-3.615,24.293 -4.245,22.348 -4.354,20.212L0,20.212ZM-16.774,2.465C-16.774,-0.877 -17.761,-3.287 -19.733,-4.766C-21.65,-6.299 -24.142,-7.066 -27.209,-7.066C-29.072,-7.066 -30.962,-6.792 -32.879,-6.245C-34.796,-5.752 -36.494,-5.094 -37.973,-4.273L-37.973,30.647L-42.574,30.647L-42.574,-26.868L-37.973,-26.868L-37.973,-8.299C-36.603,-9.23 -34.96,-9.942 -33.043,-10.435C-31.126,-10.983 -29.126,-11.257 -27.045,-11.257C-24.197,-11.257 -21.595,-10.736 -19.24,-9.696C-17.048,-8.71 -15.35,-7.231 -14.146,-5.259C-12.886,-3.287 -12.256,-0.794 -12.256,2.218L-12.256,30.647L-16.774,30.647L-16.774,2.465ZM-47.063,30.154C-50.458,31.03 -53.745,31.468 -56.922,31.468C-59.88,31.468 -62.346,31.14 -64.317,30.483C-67.549,29.387 -69.904,27.716 -71.383,25.47C-72.807,23.17 -73.519,19.966 -73.519,15.857L-73.519,5.34C-73.519,-0.082 -72.096,-4.19 -69.247,-6.984C-66.399,-9.832 -62.729,-11.257 -58.237,-11.257C-54.677,-11.257 -51.007,-10.38 -47.227,-8.627L-48.542,-5.259C-51.664,-6.518 -54.677,-7.148 -57.58,-7.148C-60.976,-7.148 -63.715,-6.162 -65.796,-4.19C-67.878,-2.273 -68.919,0.739 -68.919,4.847L-68.919,16.761C-68.919,20.541 -67.796,23.279 -65.55,24.978C-63.249,26.676 -60.209,27.525 -56.43,27.525C-53.965,27.525 -51.171,27.169 -48.049,26.456L-47.063,30.154ZM-83.812,26.456C-85.126,28.1 -86.797,29.36 -88.824,30.236C-90.796,31.112 -92.795,31.551 -94.822,31.551C-105.119,31.551 -110.268,26.539 -110.268,16.515L-110.268,-10.517L-105.667,-10.517L-105.667,17.09C-105.667,20.596 -104.708,23.197 -102.791,24.895C-100.82,26.593 -98.163,27.442 -94.822,27.442C-91.535,27.442 -88.96,26.621 -87.098,24.978C-85.181,23.279 -84.223,20.65 -84.223,17.09L-84.223,-10.517L-79.621,-10.517L-79.621,30.647L-84.14,30.647L-83.812,26.456ZM-130.969,-14.461C-130.969,-19.007 -129.82,-22.349 -127.518,-24.485C-125.218,-26.621 -122.369,-27.689 -118.973,-27.689C-117.932,-27.689 -116.919,-27.607 -115.934,-27.443L-116.672,-23.417C-117.659,-23.526 -118.371,-23.581 -118.809,-23.581C-123.849,-23.581 -126.368,-20.541 -126.368,-14.461L-126.368,-10.517L-117.002,-10.517L-118.973,-6.162L-126.368,-6.162L-126.368,30.647L-130.969,30.647L-130.969,-14.461ZM-151.43,-26.868L-143.953,-26.868L-143.953,30.646L-151.43,30.646L-151.43,-26.868ZM-168.274,8.463C-169.698,7.641 -171.423,6.902 -173.451,6.244C-175.477,5.587 -177.367,5.258 -179.12,5.258C-183.009,5.258 -184.954,7.093 -184.954,10.763L-184.954,16.186C-184.954,21.828 -181.337,24.649 -174.108,24.649C-172.355,24.649 -170.41,24.485 -168.274,24.156L-168.274,8.463ZM-160.797,30.647C-166.713,31.249 -170.985,31.551 -173.615,31.551C-179.366,31.551 -183.94,30.483 -187.336,28.346C-190.732,26.21 -192.43,22.348 -192.43,16.761L-192.43,9.942C-192.43,4.519 -190.54,0.876 -186.761,-0.986C-184.954,-1.863 -182.817,-2.301 -180.352,-2.301C-178.162,-2.301 -175.943,-1.972 -173.696,-1.315C-171.451,-0.658 -169.644,0.109 -168.274,0.986C-168.274,-1.315 -169.151,-3.04 -170.904,-4.19C-172.656,-5.341 -175.175,-5.916 -178.462,-5.916L-177.887,-11.174C-172.628,-11.174 -168.767,-10.325 -166.302,-8.627C-163.782,-6.984 -162.248,-5.012 -161.701,-2.712C-161.099,-0.411 -160.797,2.547 -160.797,6.162L-160.797,30.647ZM-202.265,31.715C-206.319,31.386 -209.194,30.181 -210.892,28.1C-212.59,26.018 -213.439,23.252 -213.439,19.801L-213.439,-26.868L-205.879,-26.868L-205.879,-10.517L-197.335,-10.517L-199.306,-3.451L-205.879,-3.451L-205.879,19.801C-205.879,21.718 -205.387,23.143 -204.4,24.074C-203.415,24.95 -201.963,25.525 -200.046,25.799L-202.265,31.715ZM-231.582,-10.517L-224.105,-10.517L-224.105,30.647L-231.582,30.647L-231.582,-10.517ZM-227.638,-19.473C-228.733,-19.473 -229.719,-19.884 -230.596,-20.705C-231.417,-21.582 -231.828,-22.568 -231.828,-23.663C-231.828,-24.704 -231.417,-25.635 -230.596,-26.457C-229.719,-27.278 -228.733,-27.689 -227.638,-27.689C-226.542,-27.689 -225.611,-27.278 -224.844,-26.457C-224.023,-25.69 -223.612,-24.759 -223.612,-23.663C-223.612,-22.568 -224.023,-21.582 -224.844,-20.705C-225.666,-19.884 -226.597,-19.473 -227.638,-19.473M-248.527,4.19C-248.527,1.561 -249.239,-0.438 -250.663,-1.808C-252.033,-3.232 -254.06,-3.944 -256.744,-3.944C-259.208,-3.944 -261.126,-3.205 -262.495,-1.726C-263.864,-0.247 -264.549,1.78 -264.549,4.355L-264.549,15.611C-264.549,18.35 -263.919,20.513 -262.659,22.102C-261.345,23.69 -259.373,24.485 -256.744,24.485C-253.95,24.485 -251.896,23.553 -250.581,21.691C-249.212,19.829 -248.527,17.035 -248.527,13.31L-248.527,4.19ZM-254.361,42.068C-250.472,41.575 -248.527,39.192 -248.527,34.919L-248.527,28.428C-249.13,29.36 -250.143,30.126 -251.567,30.729C-252.937,31.332 -254.662,31.633 -256.744,31.633C-261.564,31.633 -265.316,30.318 -268,27.689C-270.684,25.06 -272.026,21.225 -272.026,16.186L-272.026,3.944C-272.026,-0.877 -270.629,-4.601 -267.836,-7.231C-264.987,-9.915 -261.18,-11.257 -256.415,-11.257C-254.498,-11.257 -252.827,-10.983 -251.403,-10.435C-249.979,-9.887 -248.965,-9.175 -248.363,-8.299L-247.377,-10.517L-241.05,-10.517L-241.05,35.905C-241.05,39.52 -241.954,42.341 -243.762,44.368C-245.569,46.395 -248.5,47.573 -252.553,47.901L-254.361,42.068ZM-289.594,-10.517L-282.117,-10.517L-282.117,30.647L-289.594,30.647L-289.594,-10.517ZM-285.65,-19.473C-286.745,-19.473 -287.731,-19.884 -288.608,-20.705C-289.429,-21.582 -289.84,-22.568 -289.84,-23.663C-289.84,-24.704 -289.429,-25.635 -288.608,-26.457C-287.731,-27.278 -286.745,-27.689 -285.65,-27.689C-284.554,-27.689 -283.623,-27.278 -282.856,-26.457C-282.035,-25.69 -281.624,-24.759 -281.624,-23.663C-281.624,-22.568 -282.035,-21.582 -282.856,-20.705C-283.678,-19.884 -284.609,-19.473 -285.65,-19.473M-306.714,-1.972C-308.96,-3.177 -311.398,-3.78 -314.027,-3.78C-316.437,-3.78 -318.409,-3.122 -319.943,-1.808C-321.477,-0.493 -322.243,1.588 -322.243,4.437L-322.243,18.158C-322.243,20.294 -321.34,21.937 -319.532,23.088C-317.67,24.183 -315.259,24.731 -312.302,24.731C-310.658,24.731 -308.796,24.512 -306.714,24.074L-306.714,-1.972ZM-329.638,2.218C-329.638,-3.533 -327.31,-7.477 -322.654,-9.613C-320.299,-10.709 -317.642,-11.257 -314.684,-11.257C-313.151,-11.257 -311.699,-11.092 -310.33,-10.764C-308.906,-10.49 -307.7,-10.106 -306.714,-9.613L-306.714,-26.868L-299.32,-26.868L-299.32,30.647L-303.839,31.058C-307.399,31.441 -310.193,31.633 -312.219,31.633C-314.246,31.633 -316.163,31.441 -317.971,31.058C-319.724,30.674 -321.477,30.044 -323.229,29.168C-325.201,28.182 -326.762,26.73 -327.913,24.813C-329.063,22.896 -329.638,20.541 -329.638,17.747L-329.638,2.218Z" style="fill:rgb(0,128,183);fill-rule:nonzero;"/>
    </g>
</svg>
