<!DOCTYPE svg PUBLIC "-//W3C//DTD SVG 1.1//EN" "http://www.w3.org/Graphics/SVG/1.1/DTD/svg11.dtd">
<!-- Uploaded to: SVG Repo, www.svgrepo.com, Transformed by: SVG Repo Mixer Tools -->
<svg version="1.1" id="Layer_1" xmlns="http://www.w3.org/2000/svg" xmlns:xlink="http://www.w3.org/1999/xlink" viewBox="0 0 512 512" xml:space="preserve" width="800px" height="800px" fill="#000000">
<g id="SVGRepo_bgCarrier" stroke-width="0"/>
<g id="SVGRepo_tracerCarrier" stroke-linecap="round" stroke-linejoin="round"/>
<g id="SVGRepo_iconCarrier"> <path style="fill:#C38769;" d="M331.852,109.037h-18.963V61.63c0-5.231-4.25-9.481-9.481-9.481h-94.815 c-5.231,0-9.481,4.25-9.481,9.481v47.407h-18.963V61.63c0-15.685,12.76-28.444,28.444-28.444h94.815 c15.685,0,28.444,12.76,28.444,28.444V109.037z"/> <g> <rect x="180.148" y="80.593" style="fill:#9D6D5E;" width="18.963" height="28.444"/> <rect x="312.889" y="80.593" style="fill:#9D6D5E;" width="18.963" height="28.444"/> </g> <path style="fill:#6E4848;" d="M483.556,478.815H28.444C12.735,478.815,0,466.08,0,450.37V128c0-15.71,12.735-28.444,28.444-28.444 h455.111C499.265,99.556,512,112.29,512,128v322.37C512,466.08,499.265,478.815,483.556,478.815z"/> <path style="fill:#785353;" d="M483.556,459.852H28.444c-5.236,0-9.481-4.245-9.481-9.482V128c0-5.236,4.245-9.481,9.481-9.481 h455.111c5.236,0,9.481,4.245,9.481,9.481v322.37C493.037,455.607,488.792,459.852,483.556,459.852z"/> <path style="fill:#FFDC64;" d="M343.63,248.964c-10.741-10.751-25.029-16.667-40.223-16.667s-29.481,5.916-40.223,16.667 c-10.75,10.74-16.666,25.028-16.666,40.222c0,15.194,5.916,29.481,16.667,40.223c10.74,10.75,25.028,16.666,40.222,16.666 s29.481-5.916,40.223-16.667c10.75-10.74,16.666-25.028,16.666-40.222C360.296,273.991,354.38,259.704,343.63,248.964z M303.407,251.259c6.873,0,13.397,1.948,19.163,5.355L306.184,273h-36.943c1.839-3.874,4.226-7.506,7.351-10.63 C283.759,255.204,293.278,251.259,303.407,251.259z M300.629,326.495c-5.714-0.396-11.288-1.99-16.303-4.821l16.303-16.303V326.495z M265.753,291.963h21.47l-16.386,16.386C267.898,303.374,266.18,297.817,265.753,291.963z M330.222,316 c-3.098,3.098-6.753,5.394-10.63,7.153v-36.745l16.386-16.386c3.406,5.767,5.355,12.292,5.355,19.164 C341.333,299.315,337.389,308.833,330.222,316z"/> <path style="fill:#FF507D;" d="M199.33,172.396c-4.332,4.332-6.484,10.022-6.468,15.726c-5.703-0.017-11.394,2.136-15.726,6.468 c-8.683,8.683-8.617,22.823,0.143,31.585c12.132,12.132,40.815,12.61,59.48,5.845c6.766-18.664,6.287-47.348-5.845-59.48 C222.153,163.778,208.013,163.713,199.33,172.396z"/> <g> <path style="fill:#64DCA0;" d="M165.771,421.224c9.724,2.763,19.848-2.881,22.611-12.606c1.32-4.647,1.356-20.057,1.033-34.888 l-19.166-4.754c-7.945,12.271-15.785,25.062-17.086,29.637C150.401,408.338,156.045,418.462,165.771,421.224z"/> <path style="fill:#64DCA0;" d="M138.581,340.727c3.364,3.467,16.691,11.204,29.697,18.34l13.7-14.221 c-6.655-13.016-13.812-26.202-17.124-29.614c-7.041-7.256-18.63-7.429-25.884-0.389 C131.716,321.882,131.54,333.471,138.581,340.727z"/> <path style="fill:#64DCA0;" d="M196.318,367.032c14.816,0.768,30.22,1.195,34.904,0.014c9.804-2.47,15.749-12.42,13.279-22.222 c-2.47-9.804-12.418-15.749-22.222-13.279c-4.61,1.161-17.632,8.615-30.136,16.188L196.318,367.032z"/> </g> <g> <path style="fill:#7DF5A5;" d="M200.39,299.368c-9.724-2.763-19.848,2.881-22.611,12.606c-1.32,4.647-1.356,20.057-1.033,34.888 l19.166,4.754c7.944-12.271,15.785-25.062,17.086-29.637C215.759,312.255,210.116,302.131,200.39,299.368z"/> <path style="fill:#7DF5A5;" d="M227.579,379.866c-3.364-3.467-16.691-11.204-29.697-18.34l-13.7,14.221 c6.655,13.016,13.812,26.202,17.124,29.614c7.041,7.256,18.63,7.429,25.884,0.389S234.62,387.122,227.579,379.866z"/> <path style="fill:#7DF5A5;" d="M169.843,353.561c-14.816-0.768-30.22-1.195-34.904-0.014c-9.804,2.47-15.749,12.42-13.279,22.222 c2.47,9.804,12.418,15.749,22.222,13.279c4.61-1.161,17.632-8.615,30.136-16.188L169.843,353.561z"/> </g> <circle style="fill:#FFFFFF;" cx="183.076" cy="360.296" r="18.629"/> <rect x="94.815" y="99.556" style="fill:#FF6991;" width="37.926" height="379.259"/> <g> <path style="fill:#FF507D;" d="M132.741,478.815H94.815V450.37c0-5.236,4.245-9.481,9.481-9.481h18.963 c5.236,0,9.481,4.245,9.481,9.481V478.815z"/> <rect x="94.815" y="203.852" style="fill:#FF507D;" width="37.926" height="28.444"/> </g> <path style="fill:#FFC850;" d="M132.741,213.333H94.815c-5.236,0-9.481-4.245-9.481-9.481v-28.444c0-5.236,4.245-9.481,9.481-9.481 h37.926c5.236,0,9.481,4.245,9.481,9.481v28.444C142.222,209.088,137.977,213.333,132.741,213.333z"/> <path style="fill:#FFDC64;" d="M123.259,194.37h-18.963c-5.236,0-9.481-4.245-9.481-9.481l0,0c0-5.236,4.245-9.481,9.481-9.481 h18.963c5.236,0,9.481,4.245,9.481,9.481l0,0C132.741,190.125,128.495,194.37,123.259,194.37z"/> <rect x="379.259" y="99.556" style="fill:#7DF5A5;" width="37.926" height="379.259"/> <g> <path style="fill:#64DCA0;" d="M417.185,478.815h-37.926V450.37c0-5.236,4.245-9.481,9.481-9.481h18.963 c5.236,0,9.481,4.245,9.481,9.481V478.815z"/> <rect x="379.259" y="203.852" style="fill:#64DCA0;" width="37.926" height="28.444"/> </g> <path style="fill:#FFC850;" d="M417.185,213.333h-37.926c-5.236,0-9.482-4.245-9.482-9.481v-28.444c0-5.236,4.245-9.481,9.482-9.481 h37.926c5.236,0,9.481,4.245,9.481,9.481v28.444C426.667,209.088,422.421,213.333,417.185,213.333z"/> <path style="fill:#FFDC64;" d="M407.704,194.37h-18.963c-5.236,0-9.481-4.245-9.481-9.481l0,0c0-5.236,4.245-9.481,9.481-9.481 h18.963c5.236,0,9.481,4.245,9.481,9.481l0,0C417.185,190.125,412.94,194.37,407.704,194.37z"/> </g>
</svg>